<svg width="24" height="24" fill="none" xmlns="http://www.w3.org/2000/svg"><path d="M6.72 12c0-1.08.3-2.1.9-2.94.6-.9 1.44-1.56 2.4-1.98.96-.42 2.04-.48 3.06-.3s1.98.72 2.76 1.44c.78.72 1.26 1.68 1.44 2.76.18 1.02.12 2.1-.3 3.06s-1.08 1.8-1.98 2.4c-.9.6-1.92.9-2.94.9a5.26 5.26 0 01-3.78-1.56A5.26 5.26 0 016.72 12z" fill="#4FAE2E"/><path d="M15.72 5.28c0-.6.18-1.2.54-1.68.36-.48.84-.9 1.38-1.14.54-.24 1.2-.3 1.74-.18.6.12 1.14.42 1.56.84.42.42.72.96.84 1.56.12.6.06 1.2-.18 1.74S21 7.44 20.46 7.8c-.48.36-1.08.54-1.68.54-.84 0-1.56-.3-2.16-.9-.54-.6-.9-1.38-.9-2.16z" fill="#016438"/><path d="M0 12c0-3.18 1.26-6.24 3.54-8.46C5.76 1.26 8.82 0 12 0v4.38c-1.5 0-3 .42-4.26 1.26-1.26.84-2.22 2.04-2.82 3.42-.6 1.38-.72 2.94-.42 4.44.3 1.5 1.02 2.88 2.1 3.9a7.726 7.726 0 003.96 2.1c1.5.3 3.06.12 4.44-.48 1.38-.6 2.58-1.56 3.42-2.82.84-1.26 1.26-2.76 1.26-4.26H24c0 1.56-.3 3.12-.9 4.62-.6 1.44-1.5 2.76-2.58 3.9-1.14 1.14-2.46 1.98-3.9 2.58-1.44.6-3 .96-4.62.96-1.56 0-3.12-.3-4.62-.9-1.44-.6-2.76-1.5-3.9-2.58-1.14-1.14-1.98-2.46-2.58-3.9C.3 15.12 0 13.56 0 12z" fill="#016438"/></svg>