<svg width="24" height="24" fill="none" xmlns="http://www.w3.org/2000/svg"><g clip-path="url(#clip0_10_11641)"><path d="M12 24c6.627 0 12-5.373 12-12S18.627 0 12 0 0 5.373 0 12s5.373 12 12 12z" fill="#008CE7"/><path d="M14.315 6.003H8.858l-.452 2.525 4.921.008c2.424 0 3.143.88 3.12 2.34-.01.748-.337 2.014-.475 2.422-.373 1.095-1.14 2.342-4.02 2.338l-4.783-.003-.451 2.528h5.443c1.919 0 2.736-.224 3.6-.622 1.915-.884 3.056-2.776 3.514-5.246.68-3.675-.168-6.29-4.961-6.29z" fill="#fff"/><path d="M11.855 11.848c.178-.738.234-1.035.234-1.035H6.505c-1.428 0-1.632.93-1.768 1.493a23.412 23.412 0 00-.234 1.036h5.585c1.428 0 1.632-.93 1.767-1.494z" fill="#fff"/></g><defs><clipPath id="clip0_10_11641"><rect width="24" height="24" rx="12" fill="#fff"/></clipPath></defs></svg>