<svg width="24" height="24" fill="none" xmlns="http://www.w3.org/2000/svg"><g clip-path="url(#clip0_10_8467)"><path d="M12 24c6.627 0 12-5.373 12-12S18.627 0 12 0 0 5.373 0 12s5.373 12 12 12z" fill="#E6007A"/><path d="M12.204 4.969a5.057 5.057 0 00-5.052 5.052c0 .561.093 1.11.267 1.644a.713.713 0 00.895.442.713.713 0 00.441-.896 3.558 3.558 0 01-.2-1.297c.053-1.884 1.578-3.435 3.462-3.528a3.645 3.645 0 013.837 3.635 3.646 3.646 0 01-3.435 3.636s-.71.04-1.056.094c-.175.026-.308.053-.402.066-.04.014-.08-.027-.067-.067l.12-.588.655-3.02a.7.7 0 00-.534-.83.7.7 0 00-.829.536s-1.577 7.351-1.59 7.431a.7.7 0 00.534.829.7.7 0 00.83-.535c.012-.08.226-1.056.226-1.056a1.774 1.774 0 011.498-1.39c.262-.029.524-.051.788-.067a5.058 5.058 0 004.665-5.04 5.057 5.057 0 00-5.053-5.051zm.36 11.628a.84.84 0 00-1.001.655.842.842 0 00.654 1.003.84.84 0 001.003-.655.835.835 0 00-.655-1.003z" fill="#fff"/></g><defs><clipPath id="clip0_10_8467"><rect width="24" height="24" rx="12" fill="#fff"/></clipPath></defs></svg>