<svg width="24" height="24" fill="none" xmlns="http://www.w3.org/2000/svg"><g clip-path="url(#clip0_10_11589)" fill-rule="evenodd" clip-rule="evenodd"><path d="M11.953 0a12 12 0 110 24 12 12 0 010-24z" fill="#fff"/><path d="M11.953 2.577l3.157 4.717 3.157 4.718-6.314 3.181L5.64 12l3.157-4.718 3.157-4.705zm0 13.887L5.99 13.282l5.964 8.141 5.964-8.141-5.964 3.182z" fill="#343434"/><path d="M11.953 2.577l3.157 4.705L18.267 12l-6.314-2.384v-7.04z" fill="#343434"/><path d="M11.953 16.464l5.976-3.182-5.976 8.153v-4.971z" fill="#313131"/><path d="M11.953 9.616L18.267 12l-6.314 3.181V9.616z" fill="#151515"/><path d="M11.953 2.577L8.796 7.282 5.639 12l6.314-2.384v-7.04z" fill="#8C8C8C"/><path d="M11.953 16.464L5.99 13.282l5.964 8.153v-4.971z" fill="#8A8A8A"/><path d="M11.953 9.616L5.64 12l6.314 3.181V9.616z" fill="#353535"/></g><defs><clipPath id="clip0_10_11589"><rect width="24" height="24" rx="12" fill="#fff"/></clipPath></defs></svg>