<svg width="260" height="50" viewBox="0 0 260 50" fill="none" xmlns="http://www.w3.org/2000/svg">
<g clip-path="url(#clip0_2149_3321)">
<path d="M20.6469 3.49328C21.9558 2.35916 23.1532 1.10544 23.9061 0.233398C23.9061 1.24653 23.4863 2.44617 22.9367 3.50403C42.7272 3.68793 57.5942 6.25587 68.4332 10.0132H66.0495C64.4975 10.0132 63.0297 10.3748 61.7263 11.0184C51.4715 8.09441 38.0047 6.20993 20.6463 6.20993H15.7563C17.1004 6.20993 18.966 4.94997 20.6469 3.49328Z" fill="white"/>
<path d="M79.2412 18.7065C95.5078 29.6104 91.4477 43.6996 80.9558 43.6996C93.6003 43.6996 98.8882 30.0895 84.9415 18.7065H79.2412Z" fill="white"/>
<path fill-rule="evenodd" clip-rule="evenodd" d="M62.7897 19.7933C62.7897 21.7726 62.2605 23.6283 61.3359 25.2266C61.6505 25.7705 61.9194 26.3444 62.1372 26.9428C62.3943 27.0833 62.6591 27.2104 62.9308 27.3229C63.9195 27.7325 64.9794 27.9432 66.0495 27.9432H76.9162C77.2729 27.9432 77.6261 28.0138 77.9556 28.1502C78.2851 28.2868 78.5847 28.4868 78.8369 28.739C79.0891 28.9914 79.2893 29.2907 79.4257 29.6204C79.5623 29.9499 79.6325 30.3032 79.6325 30.6599C79.6325 31.0166 79.5623 31.3699 79.4257 31.6994C79.2893 32.0289 79.0891 32.3284 78.8369 32.5806C78.5847 32.8328 78.2851 33.033 77.9556 33.1694C77.6261 33.306 77.2729 33.3765 76.9162 33.3765H62.4473C61.8975 35.5123 60.7147 37.3941 59.1108 38.8098H76.9162C77.9863 38.8098 79.0462 38.5989 80.0349 38.1893C81.0238 37.7799 81.9222 37.1795 82.679 36.4227C83.4357 35.6659 84.0362 34.7675 84.4456 33.7787C84.8552 32.79 85.0661 31.73 85.0661 30.6599C85.0661 29.5896 84.8552 28.5298 84.4458 27.5409C84.0362 26.5522 83.4357 25.6538 82.679 24.8971C81.9222 24.1401 81.0238 23.5399 80.0349 23.1303C79.0462 22.7207 77.9863 22.5099 76.9162 22.5099H66.0495C65.6928 22.5099 65.3396 22.4394 65.0101 22.303C64.6806 22.1664 64.381 21.9663 64.1288 21.714C63.8766 21.4618 63.6764 21.1624 63.54 20.8327C63.4034 20.5032 63.3332 20.15 63.3332 19.7933C63.3332 19.4366 63.4034 19.0833 63.54 18.7538C63.6764 18.4243 63.8766 18.1248 64.1288 17.8726C64.381 17.6204 64.6806 17.4202 65.0101 17.2838C65.3396 17.1472 65.6928 17.0766 66.0495 17.0766H85.0661L87.7826 11.6433H66.0495C64.9794 11.6433 63.9195 11.8543 62.9308 12.2638C62.1632 12.5817 61.4501 13.0146 60.8156 13.5462C62.0592 15.3135 62.7897 17.468 62.7897 19.7933Z" fill="#F8C630"/>
<path fill-rule="evenodd" clip-rule="evenodd" d="M51.9231 11.6433H43.7732L41.0567 17.0766L51.9231 17.077C52.2799 17.077 52.6331 17.1472 52.9626 17.2838C53.2923 17.4202 53.5916 17.6204 53.844 17.8726C54.0962 18.1248 54.2962 18.4243 54.4328 18.7538C54.5692 19.0833 54.6396 19.4366 54.6396 19.7933C54.6396 20.15 54.5692 20.5032 54.4328 20.8327C54.2962 21.1624 54.0962 21.4618 53.844 21.714C53.5916 21.9663 53.2923 22.1664 52.9626 22.303C52.6331 22.4394 52.2799 22.5096 51.9231 22.5096L38.34 22.5099L37.8363 23.5173C38.9315 24.7719 39.743 26.2806 40.171 27.9432H51.9231C52.2799 27.9432 52.6331 28.0138 52.9626 28.1502C53.2923 28.2868 53.5916 28.4868 53.844 28.739C54.0962 28.9914 54.2962 29.2907 54.4328 29.6204C54.5692 29.9499 54.6396 30.3032 54.6396 30.6599C54.6396 31.0166 54.5692 31.3699 54.4328 31.6994C54.2962 32.0289 54.0962 32.3284 53.844 32.5806C53.5916 32.8328 53.2923 33.033 52.9626 33.1694C52.6331 33.306 52.2799 33.3762 51.9231 33.3762L40.171 33.3764C39.6213 35.5124 38.4385 37.3941 36.8345 38.8098H51.9231C52.9935 38.8098 54.0532 38.5989 55.0419 38.1893C56.0308 37.7799 56.9292 37.1795 57.6859 36.4227C58.4429 35.6659 59.0432 34.7675 59.4527 33.7787C59.8623 32.79 60.0731 31.73 60.0731 30.6599C60.0731 29.5896 59.8623 28.5298 59.4527 27.5411C59.101 26.6921 58.6089 25.9099 57.9978 25.2266C58.6089 24.5433 59.101 23.761 59.4527 22.9121C59.8623 21.9234 60.0731 20.8636 60.0731 19.7933C60.0731 18.7231 59.8623 17.6632 59.4527 16.6745C59.0432 15.6856 58.4429 14.7872 57.6859 14.0305C56.9292 13.2737 56.0308 12.6733 55.0419 12.2638C54.0532 11.8543 52.9935 11.6433 51.9231 11.6433Z" fill="white"/>
<path d="M33.6064 37.7832C34.2665 37.4164 34.8736 36.9588 35.4096 36.4227C36.1664 35.6659 36.7668 34.7675 37.1764 33.7787C37.586 32.7898 37.7967 31.73 37.7967 30.6599C37.7967 29.5895 37.586 28.5298 37.1764 27.5411C36.7668 26.5522 36.1664 25.6538 35.4096 24.8971C34.6528 24.1401 33.7544 23.5399 32.7656 23.1303C31.7769 22.7207 30.7171 22.5099 29.6468 22.5099H18.7802C18.4234 22.5099 18.0704 22.4394 17.7407 22.303C17.4112 22.1664 17.1117 21.9663 16.8595 21.714C16.6073 21.4618 16.4072 21.1624 16.2706 20.8327C16.1341 20.5032 16.0638 20.15 16.0638 19.7933C16.0638 19.4366 16.1341 19.0833 16.2706 18.7538C16.4072 18.4243 16.6073 18.1248 16.8595 17.8726C17.1117 17.6204 17.4112 17.4202 17.7407 17.2838C18.0704 17.1472 18.4234 17.077 18.7802 17.077L37.7967 17.0766L40.5134 11.6433H18.7802C17.71 11.6433 16.6502 11.8543 15.6614 12.2638C14.6727 12.6733 13.7741 13.2737 13.0173 14.0305C12.2606 14.7872 11.6603 15.6856 11.2507 16.6745C10.8411 17.6632 10.6304 18.7231 10.6304 19.7933C10.6304 20.8636 10.8411 21.9234 11.2507 22.9121C11.6603 23.9009 12.2606 24.7993 13.0173 25.5561C13.7741 26.313 14.6727 26.9133 15.6614 27.3229C16.6502 27.7325 17.71 27.9432 18.7802 27.9432H29.6468C30.0035 27.9432 30.3567 28.0138 30.6863 28.1502C31.0159 28.2868 31.3153 28.4868 31.5675 28.739C31.8199 28.9914 32.0199 29.2907 32.1565 29.6204C32.2929 29.9499 32.3631 30.3032 32.3631 30.6599C32.3631 31.0166 32.2929 31.3699 32.1565 31.6994C32.0199 32.0289 31.8199 32.3284 31.5675 32.5806C31.3153 32.8328 31.0159 33.033 30.6863 33.1694C30.3567 33.306 30.0035 33.3762 29.6468 33.3762L21.1933 33.3765C24.6737 35.0081 28.7869 36.5066 33.6064 37.7832Z" fill="#F8C630"/>
<path d="M8.40324 33.3765H7.91392L5.19727 38.8098H17.6778C14.0298 37.1314 10.9537 35.2987 8.40324 33.3765Z" fill="#F8C630"/>
<path fill-rule="evenodd" clip-rule="evenodd" d="M72.5689 46.4162C71.2601 47.5505 70.0629 48.8042 69.3097 49.6762C69.3097 48.6631 69.7296 47.4633 70.2792 46.4056C-9.47087 45.6643 -9.26862 6.20996 12.2604 6.20996C-4.85456 6.20996 -4.85456 43.6995 72.5696 43.6995H77.4595C76.1157 43.6995 74.2501 44.9595 72.5689 46.4162Z" fill="white"/>
<path d="M113.351 25.029C112.209 25.029 111.102 24.8669 110.031 24.5428C108.974 24.2185 108.135 23.7886 107.515 23.253L108.467 21.1175C109.073 21.5968 109.813 21.9915 110.687 22.3016C111.575 22.5976 112.463 22.7457 113.351 22.7457C114.45 22.7457 115.268 22.5694 115.803 22.217C116.353 21.8646 116.628 21.3995 116.628 20.8217C116.628 20.3987 116.473 20.0534 116.163 19.7856C115.867 19.5036 115.486 19.2852 115.021 19.1301C114.556 18.9751 113.922 18.7989 113.118 18.6016C111.99 18.3338 111.074 18.066 110.37 17.7982C109.679 17.5304 109.08 17.1146 108.572 16.5507C108.079 15.9728 107.832 15.1975 107.832 14.2249C107.832 13.4075 108.051 12.6674 108.488 12.0049C108.939 11.3284 109.608 10.7928 110.496 10.3981C111.399 10.0034 112.498 9.80615 113.795 9.80615C114.697 9.80615 115.585 9.91882 116.459 10.1443C117.333 10.3698 118.087 10.6941 118.721 11.1169L117.854 13.2524C117.206 12.8719 116.529 12.583 115.824 12.3855C115.12 12.1883 114.436 12.0895 113.774 12.0895C112.688 12.0895 111.878 12.2729 111.342 12.6393C110.821 13.0057 110.56 13.4921 110.56 14.0981C110.56 14.521 110.708 14.8663 111.004 15.1341C111.314 15.4019 111.701 15.6133 112.167 15.7685C112.632 15.9234 113.266 16.0997 114.07 16.297C115.169 16.5507 116.071 16.8185 116.776 17.1004C117.481 17.3682 118.08 17.784 118.573 18.3478C119.08 18.9117 119.334 19.6728 119.334 20.6313C119.334 21.4488 119.109 22.1889 118.658 22.8514C118.221 23.5139 117.551 24.0424 116.649 24.437C115.747 24.8317 114.647 25.029 113.351 25.029Z" fill="#F8C630"/>
<path d="M124.855 12.3431H119.95V10.0173H132.509V12.3431H127.604V24.8176H124.855V12.3431Z" fill="#F8C630"/>
<path d="M145.672 22.5129V24.8176H134.572V10.0173H145.376V12.322H137.321V16.17H144.467V18.4323H137.321V22.5129H145.672Z" fill="#F8C630"/>
<path d="M154.825 10.0173C156.108 10.0173 157.222 10.2288 158.167 10.6517C159.125 11.0745 159.857 11.6806 160.365 12.47C160.873 13.2594 161.126 14.1967 161.126 15.282C161.126 16.3532 160.873 17.2906 160.365 18.094C159.857 18.8833 159.125 19.4895 158.167 19.9122C157.222 20.3352 156.108 20.5466 154.825 20.5466H151.485V24.8176H148.736V10.0173H154.825ZM154.699 18.2209C155.896 18.2209 156.806 17.9671 157.427 17.4597C158.046 16.9522 158.356 16.2265 158.356 15.282C158.356 14.3377 158.046 13.6117 157.427 13.1042C156.806 12.5969 155.896 12.3431 154.699 12.3431H151.485V18.2209H154.699Z" fill="#F8C630"/>
<path d="M180.565 17.1216C181.381 17.3894 182.029 17.8405 182.51 18.4747C182.988 19.0949 183.229 19.8702 183.229 20.8005C183.229 22.0831 182.735 23.0769 181.749 23.7816C180.762 24.4724 179.324 24.8176 177.434 24.8176H170.078V10.0176H177.011C178.76 10.0176 180.105 10.3629 181.05 11.0536C181.995 11.7301 182.468 12.6675 182.468 13.8656C182.468 14.5984 182.298 15.2469 181.96 15.8107C181.622 16.3746 181.156 16.8116 180.565 17.1216ZM172.825 12.1742V16.2546H176.717C177.675 16.2546 178.409 16.0856 178.915 15.7473C179.436 15.3949 179.698 14.8876 179.698 14.2251C179.698 13.5484 179.436 13.041 178.915 12.7027C178.409 12.3503 177.675 12.1742 176.717 12.1742H172.825ZM177.266 22.661C179.395 22.661 180.459 21.9492 180.459 20.5256C180.459 19.102 179.395 18.3901 177.266 18.3901H172.825V22.661H177.266Z" fill="white"/>
<path d="M192.237 19.5953V24.8176H189.488V19.6376L183.674 10.0176H186.612L190.947 17.2274L195.324 10.0176H198.03L192.237 19.5953Z" fill="white"/>
<path d="M211.666 25.029C210.524 25.029 209.418 24.8669 208.347 24.5428C207.29 24.2185 206.451 23.7886 205.83 23.253L206.782 21.1175C207.388 21.5968 208.128 21.9915 209.002 22.3016C209.89 22.5976 210.777 22.7457 211.666 22.7457C212.765 22.7457 213.583 22.5694 214.119 22.217C214.668 21.8646 214.942 21.3995 214.942 20.8217C214.942 20.3987 214.788 20.0534 214.478 19.7856C214.181 19.5036 213.802 19.2852 213.335 19.1301C212.871 18.9751 212.236 18.7989 211.434 18.6016C210.306 18.3338 209.389 18.066 208.685 17.7982C207.993 17.5304 207.395 17.1146 206.887 16.5507C206.393 15.9728 206.147 15.1975 206.147 14.2249C206.147 13.4075 206.366 12.6674 206.802 12.0049C207.253 11.3284 207.924 10.7928 208.811 10.3981C209.714 10.0034 210.813 9.80615 212.11 9.80615C213.011 9.80615 213.9 9.91882 214.774 10.1443C215.648 10.3698 216.402 10.6941 217.036 11.1169L216.169 13.2524C215.521 12.8719 214.845 12.583 214.14 12.3855C213.434 12.1883 212.751 12.0895 212.089 12.0895C211.004 12.0895 210.193 12.2729 209.657 12.6393C209.136 13.0057 208.876 13.4921 208.876 14.0981C208.876 14.521 209.023 14.8663 209.319 15.1341C209.63 15.4019 210.016 15.6133 210.482 15.7685C210.947 15.9234 211.581 16.0997 212.386 16.297C213.484 16.5507 214.386 16.8185 215.091 17.1004C215.795 17.3682 216.395 17.784 216.889 18.3478C217.395 18.9117 217.65 19.6728 217.65 20.6313C217.65 21.4488 217.424 22.1889 216.972 22.8514C216.535 23.5139 215.866 24.0424 214.965 24.437C214.062 24.8317 212.963 25.029 211.666 25.029Z" fill="#F8C630"/>
<path d="M223.17 12.3431H218.265V10.0173H230.824V12.3431H225.919V24.8176H223.17V12.3431Z" fill="#F8C630"/>
<path d="M243.987 22.5129V24.8176H232.887V10.0173H243.691V12.322H235.636V16.17H242.781V18.4323H235.636V22.5129H243.987Z" fill="#F8C630"/>
<path d="M253.139 10.0173C254.422 10.0173 255.537 10.2288 256.481 10.6517C257.44 11.0745 258.173 11.6806 258.679 12.47C259.187 13.2594 259.44 14.1967 259.44 15.282C259.44 16.3532 259.187 17.2906 258.679 18.094C258.173 18.8833 257.44 19.4895 256.481 19.9122C255.537 20.3352 254.422 20.5466 253.139 20.5466H249.799V24.8176H247.05V10.0173H253.139ZM253.013 18.2209C254.211 18.2209 255.121 17.9671 255.741 17.4597C256.362 16.9522 256.67 16.2265 256.67 15.282C256.67 14.3377 256.362 13.6117 255.741 13.1042C255.121 12.5969 254.211 12.3431 253.013 12.3431H249.799V18.2209H253.013Z" fill="#F8C630"/>
<path d="M110.655 38.9742C110.052 38.9742 109.508 38.8444 109.023 38.5851C108.538 38.32 108.158 37.9564 107.881 37.4941C107.605 37.0261 107.467 36.5046 107.467 35.9296C107.467 35.3545 107.605 34.8357 107.881 34.3734C108.158 33.9054 108.538 33.5418 109.023 33.2825C109.508 33.0174 110.052 32.885 110.655 32.885C111.258 32.885 111.803 33.0174 112.287 33.2825C112.772 33.5418 113.153 33.9026 113.429 34.3649C113.705 34.8272 113.844 35.3488 113.844 35.9296C113.844 36.5103 113.705 37.0318 113.429 37.4941C113.153 37.9564 112.772 38.32 112.287 38.5851C111.803 38.8444 111.258 38.9742 110.655 38.9742ZM110.655 38.01C111.05 38.01 111.405 37.9226 111.721 37.7479C112.037 37.5674 112.285 37.3194 112.465 37.0036C112.645 36.6822 112.736 36.3243 112.736 35.9296C112.736 35.5349 112.645 35.1796 112.465 34.864C112.285 34.5426 112.037 34.2946 111.721 34.1197C111.405 33.9392 111.05 33.8491 110.655 33.8491C110.26 33.8491 109.905 33.9392 109.59 34.1197C109.274 34.2946 109.026 34.5426 108.845 34.864C108.665 35.1796 108.575 35.5349 108.575 35.9296C108.575 36.3243 108.665 36.6822 108.845 37.0036C109.026 37.3194 109.274 37.5674 109.59 37.7479C109.905 37.9226 110.26 38.01 110.655 38.01Z" fill="white"/>
<path d="M122.637 32.9695V38.8895H121.732L118.468 34.8807V38.8895H117.377V32.9695H118.282L121.546 36.9782V32.9695H122.637Z" fill="white"/>
<path d="M126.591 32.9695H127.691V37.9592H130.786V38.8895H126.591V32.9695Z" fill="white"/>
<path d="M134.022 32.9695H135.122V38.8895H134.022V32.9695Z" fill="white"/>
<path d="M144.352 32.9695V38.8895H143.447L140.182 34.8807V38.8895H139.091V32.9695H139.996L143.261 36.9782V32.9695H144.352Z" fill="white"/>
<path d="M152.746 37.9676V38.8895H148.306V32.9695H152.627V33.8913H149.405V35.4305H152.263V36.3354H149.405V37.9676H152.746Z" fill="white"/>
<path d="M165.485 37.9676V38.8895H161.044V32.9695H165.367V33.8913H162.145V35.4305H165.003V36.3354H162.145V37.9676H165.485Z" fill="white"/>
<path d="M172.742 38.8895L171.136 36.6398L169.544 38.8895H168.293L170.493 35.8702L168.413 32.9695H169.655L171.169 35.0753L172.666 32.9695H173.859L171.786 35.8279L174.011 38.8895H172.742Z" fill="white"/>
<path d="M179.769 38.9742C179.171 38.9742 178.63 38.8444 178.145 38.5851C177.667 38.32 177.289 37.9564 177.013 37.4941C176.741 37.0318 176.606 36.5103 176.606 35.9296C176.606 35.3488 176.745 34.8272 177.02 34.3649C177.298 33.9026 177.675 33.5418 178.154 33.2825C178.639 33.0174 179.18 32.885 179.778 32.885C180.263 32.885 180.705 32.9696 181.106 33.1386C181.506 33.3078 181.844 33.553 182.121 33.8744L181.411 34.5426C180.983 34.0803 180.454 33.8491 179.828 33.8491C179.423 33.8491 179.059 33.9392 178.738 34.1197C178.417 34.2946 178.166 34.5398 177.986 34.8555C177.805 35.1713 177.715 35.5292 177.715 35.9296C177.715 36.3298 177.805 36.6879 177.986 37.0036C178.166 37.3194 178.417 37.5674 178.738 37.7479C179.059 37.9226 179.423 38.01 179.828 38.01C180.454 38.01 180.983 37.776 181.411 37.3081L182.121 37.9846C181.844 38.306 181.503 38.5513 181.097 38.7204C180.697 38.8896 180.255 38.9742 179.769 38.9742Z" fill="white"/>
<path d="M190.802 32.9695V38.8895H189.703V36.3523H186.642V38.8895H185.543V32.9695H186.642V35.4135H189.703V32.9695H190.802Z" fill="white"/>
<path d="M198.597 37.5193H195.636L195.052 38.8895H193.92L196.585 32.9695H197.666L200.339 38.8895H199.188L198.597 37.5193ZM198.233 36.6568L197.117 34.0688L196.009 36.6568H198.233Z" fill="white"/>
<path d="M208.72 32.9695V38.8895H207.815L204.551 34.8807V38.8895H203.459V32.9695H204.366L207.629 36.9782V32.9695H208.72Z" fill="white"/>
<path d="M216.717 35.8618H217.757V38.2214C217.452 38.4639 217.097 38.6499 216.691 38.7796C216.285 38.9092 215.868 38.9742 215.44 38.9742C214.836 38.9742 214.292 38.8444 213.807 38.5851C213.323 38.32 212.942 37.9564 212.666 37.4941C212.389 37.0318 212.252 36.5103 212.252 35.9296C212.252 35.3488 212.389 34.8272 212.666 34.3649C212.942 33.9026 213.323 33.5418 213.807 33.2825C214.297 33.0174 214.848 32.885 215.457 32.885C215.953 32.885 216.403 32.9666 216.811 33.1303C217.216 33.2937 217.558 33.5333 217.833 33.8491L217.14 34.5256C216.689 34.0746 216.145 33.8491 215.507 33.8491C215.089 33.8491 214.718 33.9364 214.391 34.1112C214.07 34.2861 213.815 34.5313 213.63 34.847C213.45 35.1628 213.36 35.5237 213.36 35.9296C213.36 36.3243 213.45 36.6794 213.63 36.9951C213.815 37.3109 214.07 37.5589 214.391 37.7394C214.718 37.9198 215.088 38.01 215.498 38.01C215.961 38.01 216.367 37.9085 216.717 37.7056V35.8618Z" fill="white"/>
<path d="M226.015 37.9676V38.8895H221.576V32.9695H225.897V33.8913H222.675V35.4305H225.533V36.3354H222.675V37.9676H226.015Z" fill="white"/>
<path d="M238.179 37.9593V38.8896H233.814V38.1538L236.167 35.9211C236.432 35.6674 236.609 35.4476 236.699 35.2614C236.794 35.0697 236.843 34.8808 236.843 34.6948C236.843 34.4185 236.749 34.207 236.564 34.0606C236.378 33.9139 236.104 33.8406 235.744 33.8406C235.14 33.8406 234.678 34.0463 234.357 34.458L233.587 33.8659C233.818 33.5558 234.128 33.3163 234.516 33.1471C234.912 32.9724 235.352 32.885 235.836 32.885C236.479 32.885 236.992 33.0372 237.375 33.3416C237.76 33.6461 237.95 34.0606 237.95 34.5849C237.95 34.9062 237.883 35.2078 237.747 35.4897C237.612 35.7717 237.352 36.0931 236.969 36.4539L235.388 37.9593H238.179Z" fill="white"/>
<path d="M246.334 37.5448H245.286V38.8895H244.22V37.5448H240.973V36.7837L243.89 32.9695H245.066L242.318 36.6145H244.254V35.422H245.286V36.6145H246.334V37.5448Z" fill="white"/>
<path d="M251.545 31.7686H252.493L249.703 39.7353H248.754L251.545 31.7686Z" fill="white"/>
<path d="M259.435 32.9695V33.7051L257.135 38.8895H255.96L258.184 33.8998H255.858V34.9061H254.835V32.9695H259.435Z" fill="white"/>
</g>
<defs>
<clipPath id="clip0_2149_3321">
<rect width="260" height="50" fill="white"/>
</clipPath>
</defs>
</svg>
