<svg width="94" height="50" viewBox="0 0 94 50" fill="none" xmlns="http://www.w3.org/2000/svg">
<g clip-path="url(#clip0_2149_3281)">
<path d="M20.6474 3.49328C21.9563 2.35916 23.1537 1.10544 23.9066 0.233398C23.9066 1.24653 23.4868 2.44617 22.9372 3.50403C42.7277 3.68793 57.5947 6.25587 68.4337 10.0132H66.05C64.498 10.0132 63.0302 10.3748 61.7267 11.0184C51.472 8.09441 38.0052 6.20993 20.6467 6.20993H15.7568C17.1009 6.20993 18.9665 4.94997 20.6474 3.49328Z" fill="white"/>
<path d="M79.2412 18.7065C95.5078 29.6104 91.4477 43.6996 80.9558 43.6996C93.6003 43.6996 98.8882 30.0895 84.9415 18.7065H79.2412Z" fill="white"/>
<path fill-rule="evenodd" clip-rule="evenodd" d="M62.7902 19.7933C62.7902 21.7726 62.261 23.6283 61.3364 25.2266C61.651 25.7705 61.9198 26.3444 62.1377 26.9428C62.3948 27.0833 62.6596 27.2104 62.9312 27.3229C63.9199 27.7325 64.9799 27.9432 66.05 27.9432H76.9166C77.2734 27.9432 77.6266 28.0138 77.9561 28.1502C78.2856 28.2868 78.5851 28.4868 78.8373 28.739C79.0896 28.9914 79.2898 29.2907 79.4262 29.6204C79.5628 29.9499 79.6329 30.3032 79.6329 30.6599C79.6329 31.0166 79.5628 31.3699 79.4262 31.6994C79.2898 32.0289 79.0896 32.3284 78.8373 32.5806C78.5851 32.8328 78.2856 33.033 77.9561 33.1694C77.6266 33.306 77.2734 33.3765 76.9166 33.3765H62.4478C61.898 35.5123 60.7152 37.3941 59.1113 38.8098H76.9166C77.9868 38.8098 79.0467 38.5989 80.0354 38.1893C81.0243 37.7799 81.9227 37.1795 82.6795 36.4227C83.4362 35.6659 84.0367 34.7675 84.4461 33.7787C84.8557 32.79 85.0666 31.73 85.0666 30.6599C85.0666 29.5896 84.8557 28.5298 84.4462 27.5409C84.0367 26.5522 83.4362 25.6538 82.6795 24.8971C81.9227 24.1401 81.0243 23.5399 80.0354 23.1303C79.0467 22.7207 77.9868 22.5099 76.9166 22.5099H66.05C65.6933 22.5099 65.3401 22.4394 65.0106 22.303C64.681 22.1664 64.3815 21.9663 64.1293 21.714C63.8771 21.4618 63.6769 21.1624 63.5405 20.8327C63.4039 20.5032 63.3337 20.15 63.3337 19.7933C63.3337 19.4366 63.4039 19.0833 63.5405 18.7538C63.6769 18.4243 63.8771 18.1248 64.1293 17.8726C64.3815 17.6204 64.681 17.4202 65.0106 17.2838C65.3401 17.1472 65.6933 17.0766 66.05 17.0766H85.0666L87.7831 11.6433H66.05C64.9799 11.6433 63.9199 11.8543 62.9312 12.2638C62.1637 12.5817 61.4506 13.0146 60.8161 13.5462C62.0597 15.3135 62.7902 17.468 62.7902 19.7933Z" fill="#F8C630"/>
<path fill-rule="evenodd" clip-rule="evenodd" d="M51.9231 11.6433H43.7732L41.0567 17.0766L51.9231 17.077C52.2799 17.077 52.6331 17.1472 52.9626 17.2838C53.2923 17.4202 53.5916 17.6204 53.844 17.8726C54.0962 18.1248 54.2962 18.4243 54.4328 18.7538C54.5692 19.0833 54.6396 19.4366 54.6396 19.7933C54.6396 20.15 54.5692 20.5032 54.4328 20.8327C54.2962 21.1624 54.0962 21.4618 53.844 21.714C53.5916 21.9663 53.2923 22.1664 52.9626 22.303C52.6331 22.4394 52.2799 22.5096 51.9231 22.5096L38.34 22.5099L37.8363 23.5173C38.9315 24.7719 39.743 26.2806 40.171 27.9432H51.9231C52.2799 27.9432 52.6331 28.0138 52.9626 28.1502C53.2923 28.2868 53.5916 28.4868 53.844 28.739C54.0962 28.9914 54.2962 29.2907 54.4328 29.6204C54.5692 29.9499 54.6396 30.3032 54.6396 30.6599C54.6396 31.0166 54.5692 31.3699 54.4328 31.6994C54.2962 32.0289 54.0962 32.3284 53.844 32.5806C53.5916 32.8328 53.2923 33.033 52.9626 33.1694C52.6331 33.306 52.2799 33.3762 51.9231 33.3762L40.171 33.3764C39.6213 35.5124 38.4385 37.3941 36.8345 38.8098H51.9231C52.9935 38.8098 54.0532 38.5989 55.0419 38.1893C56.0308 37.7799 56.9292 37.1795 57.6859 36.4227C58.4429 35.6659 59.0432 34.7675 59.4527 33.7787C59.8623 32.79 60.0731 31.73 60.0731 30.6599C60.0731 29.5896 59.8623 28.5298 59.4527 27.5411C59.101 26.6921 58.6089 25.9099 57.9978 25.2266C58.6089 24.5433 59.101 23.761 59.4527 22.9121C59.8623 21.9234 60.0731 20.8636 60.0731 19.7933C60.0731 18.7231 59.8623 17.6632 59.4527 16.6745C59.0432 15.6856 58.4429 14.7872 57.6859 14.0305C56.9292 13.2737 56.0308 12.6733 55.0419 12.2638C54.0532 11.8543 52.9935 11.6433 51.9231 11.6433Z" fill="white"/>
<path d="M33.6064 37.7832C34.2665 37.4164 34.8736 36.9588 35.4096 36.4227C36.1664 35.6659 36.7668 34.7675 37.1764 33.7787C37.586 32.7898 37.7967 31.73 37.7967 30.6599C37.7967 29.5895 37.586 28.5298 37.1764 27.5411C36.7668 26.5522 36.1664 25.6538 35.4096 24.8971C34.6528 24.1401 33.7544 23.5399 32.7656 23.1303C31.7769 22.7207 30.7171 22.5099 29.6468 22.5099H18.7802C18.4234 22.5099 18.0704 22.4394 17.7407 22.303C17.4112 22.1664 17.1117 21.9663 16.8595 21.714C16.6073 21.4618 16.4072 21.1624 16.2706 20.8327C16.1341 20.5032 16.0638 20.15 16.0638 19.7933C16.0638 19.4366 16.1341 19.0833 16.2706 18.7538C16.4072 18.4243 16.6073 18.1248 16.8595 17.8726C17.1117 17.6204 17.4112 17.4202 17.7407 17.2838C18.0704 17.1472 18.4234 17.077 18.7802 17.077L37.7967 17.0766L40.5134 11.6433H18.7802C17.71 11.6433 16.6502 11.8543 15.6614 12.2638C14.6727 12.6733 13.7741 13.2737 13.0173 14.0305C12.2606 14.7872 11.6603 15.6856 11.2507 16.6745C10.8411 17.6632 10.6304 18.7231 10.6304 19.7933C10.6304 20.8636 10.8411 21.9234 11.2507 22.9121C11.6603 23.9009 12.2606 24.7993 13.0173 25.5561C13.7741 26.313 14.6727 26.9133 15.6614 27.3229C16.6502 27.7325 17.71 27.9432 18.7802 27.9432H29.6468C30.0035 27.9432 30.3567 28.0138 30.6863 28.1502C31.0159 28.2868 31.3153 28.4868 31.5675 28.739C31.8199 28.9914 32.0199 29.2907 32.1565 29.6204C32.2929 29.9499 32.3631 30.3032 32.3631 30.6599C32.3631 31.0166 32.2929 31.3699 32.1565 31.6994C32.0199 32.0289 31.8199 32.3284 31.5675 32.5806C31.3153 32.8328 31.0159 33.033 30.6863 33.1694C30.3567 33.306 30.0035 33.3762 29.6468 33.3762L21.1933 33.3765C24.6737 35.0081 28.7869 36.5066 33.6064 37.7832Z" fill="#F8C630"/>
<path d="M8.40324 33.3765H7.91392L5.19727 38.8098H17.6778C14.0298 37.1314 10.9537 35.2987 8.40324 33.3765Z" fill="#F8C630"/>
<path fill-rule="evenodd" clip-rule="evenodd" d="M72.5689 46.4162C71.2601 47.5505 70.0629 48.8042 69.3097 49.6762C69.3097 48.6631 69.7296 47.4633 70.2792 46.4056C-9.47087 45.6643 -9.26862 6.20996 12.2604 6.20996C-4.85456 6.20996 -4.85456 43.6995 72.5696 43.6995H77.4595C76.1157 43.6995 74.2501 44.9595 72.5689 46.4162Z" fill="white"/>
</g>
<defs>
<clipPath id="clip0_2149_3281">
<rect width="94" height="50" fill="white"/>
</clipPath>
</defs>
</svg>
