<svg width="178" height="48" viewBox="0 0 178 48" fill="none" xmlns="http://www.w3.org/2000/svg">
<g clip-path="url(#clip0_2162_4900)">
<path fill-rule="evenodd" clip-rule="evenodd" d="M42.5214 3.01665C28.9444 -1.00555 14.497 -1.00555 0.920044 3.01665V24.78V26.2367C0.920044 35.4116 8.86171 43.7169 21.7207 48C34.558 43.7169 42.5214 35.2812 42.5214 26.2367V24.78V3.01665ZM30.6415 31.7373C29.1744 32.8086 27.5935 33.035 26.714 33.161C26.5763 33.1808 26.4553 33.1981 26.3551 33.2157C26.2135 33.2157 26.0071 33.2338 25.7623 33.2551C25.4053 33.2862 24.9662 33.3244 24.5275 33.3244V37.9771H21.7207V33.4549H19.5231V37.9771H16.6946V33.4549H11.1898L11.7991 30.0415H13.5179C14.1271 30.0415 14.3665 30.0415 14.6276 29.7805C14.8669 29.5414 14.8669 29.1718 14.8669 28.9327V17.1922C14.8669 16.4747 14.8669 16.2138 14.497 15.8659C14.1271 15.4963 13.4092 15.4963 12.9087 15.4963H11.1898V12.5612H16.6946V8.03896H19.5231V12.5612H21.7207V8.03896H24.5275V12.6699C26.6163 12.8004 28.2046 13.17 29.5536 14.2571C31.2507 15.605 31.2507 17.8009 31.1419 18.4314C31.1419 18.9098 30.8808 20.0186 30.4021 20.6273C29.9017 21.3448 28.8138 21.9754 28.8138 21.9754C28.8138 21.9754 30.1628 22.2145 31.1419 22.9537C32.121 23.6712 32.8391 24.9105 32.7302 26.8454C32.7302 28.6934 32.3603 30.6502 30.6415 31.7373ZM52.8561 34.6472C52.3558 34.6472 51.8988 34.6255 51.4637 34.6037C50.8979 34.5602 50.3758 34.495 49.8535 34.3862C49.462 34.2994 49.0485 34.1906 48.6133 34.0384C48.1782 33.908 47.7213 33.734 47.2208 33.5384L51.877 13.8622L56.0329 13.2535L54.314 20.2108C54.8361 20.0368 55.3366 19.9064 55.837 19.8194C56.4245 19.7107 57.012 19.6672 57.5559 19.7107C58.0564 19.7542 58.5132 19.8629 58.9267 20.0151C59.4488 20.2108 59.884 20.4934 60.2539 20.8413C60.5585 21.1456 60.8196 21.4935 61.0372 21.8631C61.2983 22.3849 61.4941 22.9502 61.6464 23.5372C61.7036 23.8229 61.7441 24.1085 61.7825 24.3795L61.7987 24.4938C61.864 25.0592 61.864 25.6244 61.8205 26.1897C61.7769 26.8202 61.6682 27.4289 61.4941 28.016C61.3201 28.6465 61.0807 29.277 60.7761 29.8423C60.602 30.2119 60.3845 30.5598 60.1451 30.9076C59.884 31.2773 59.5794 31.6469 59.253 31.973C58.8831 32.3643 58.4697 32.7122 58.0346 33.0166C57.5341 33.3644 57.012 33.6688 56.4463 33.908C55.9241 34.1254 55.4019 34.2994 54.8361 34.408C54.2051 34.5602 53.5306 34.6472 52.8561 34.6472ZM53.8352 23.646L51.9859 31.1033L52.0945 31.1179C52.3761 31.156 52.6294 31.1903 52.8997 31.1903C53.0956 31.1903 53.3131 31.1903 53.5089 31.1685C53.857 31.1468 54.1616 31.0815 54.4663 30.9729C54.7492 30.8859 55.0102 30.7772 55.2496 30.6468C55.5324 30.4945 55.7935 30.2988 56.0546 30.1032C56.2939 29.8858 56.5333 29.6466 56.7291 29.4075C56.9467 29.1249 57.1425 28.8204 57.3166 28.4943C57.4906 28.1682 57.643 27.8203 57.7518 27.4942C57.8214 27.2679 57.8771 27.0417 57.9301 26.8265L57.9303 26.8256C57.9434 26.7726 57.9564 26.7195 57.9693 26.668C58.0071 26.4224 58.0285 26.1603 58.0477 25.9247L58.0564 25.8201C58.0564 25.4288 58.0129 25.1027 57.9476 24.7982C57.8387 24.3852 57.6865 24.059 57.4906 23.7764C57.3384 23.5807 57.186 23.4068 56.9902 23.2764C56.7074 23.0806 56.4028 22.9284 56.0546 22.8633C55.6847 22.798 55.3148 22.8415 54.9232 22.9502C54.5533 23.0806 54.1616 23.298 53.8352 23.646ZM62.3862 34.1471H66.4331L69.8491 19.8412H65.8239L62.3862 34.1471ZM66.1938 16.0581C66.1938 17.3627 67.1293 18.1453 68.3913 18.1453C69.8926 18.1453 71.1981 16.8191 71.1981 15.3189C71.1981 14.0144 70.2625 13.2535 69.0005 13.2535C67.4992 13.2535 66.1938 14.5579 66.1938 16.0581ZM73.7661 16.2972L77.9218 15.6885L76.9427 19.8411H81.4685L80.6198 23.1458H76.2247L74.9845 28.1681C74.8758 28.6465 74.6364 29.8858 74.8758 30.364C75.2022 31.038 76.0072 31.212 76.7034 31.212C77.6189 31.212 78.1961 31.0331 79.044 30.7702L79.1621 30.7336L79.4014 33.7775C78.4876 34.2341 76.4859 34.5167 75.485 34.5167C73.9401 34.5167 71.7208 34.0601 71.0681 32.4295C70.5024 31.0163 70.7417 29.1248 71.0681 27.6681L73.7661 16.2972ZM86.716 28.0968C87.7435 28.6142 89.0617 29.2781 89.0617 30.1248C89.0617 31.2336 87.9302 31.4727 86.603 31.4727C85.0799 31.4945 83.2958 30.864 82.5777 30.4727L81.2287 33.5383C83.0129 34.4296 84.4925 34.7557 86.4942 34.7557C89.4316 34.7557 92.8475 33.5817 92.8475 30.1248C92.8475 27.5531 90.8697 26.5085 89.3384 25.6998C88.3711 25.189 87.5821 24.7722 87.5821 24.1241C87.5821 23.0153 89.0181 23.0153 89.8015 23.0153C90.65 23.0153 92.2601 23.4066 92.9781 23.885L94.3271 20.8194C92.891 20.1236 91.5203 19.7323 89.9102 19.7323C86.8205 19.7323 83.6874 20.7541 83.6874 24.3633C83.6874 25.9721 84.5795 26.7766 85.8415 27.6245C86.0599 27.7664 86.3717 27.9234 86.716 28.0968ZM22.5036 21.9282C24.3531 21.8412 26.6812 21.189 26.6812 18.9931C26.6812 16.6668 23.7439 16.4276 22.025 16.4276C21.1764 16.4276 20.1972 16.5363 20.1972 16.5363V22.037C20.1972 21.9665 20.7549 21.96 21.4138 21.9522C21.7715 21.9481 22.1592 21.9436 22.5036 21.9282ZM20.3067 24.733C20.3067 24.733 22.1561 24.6243 23.4833 24.733C25.4416 24.9069 28.0525 25.4287 28.1396 27.7985C28.2484 30.2771 25.4198 30.7336 23.4833 30.8424C22.1561 30.9293 20.3067 30.8424 20.3067 30.8424V24.733Z" fill="#F89C1C"/>
<path fill-rule="evenodd" clip-rule="evenodd" d="M143.871 34.5167C142.457 34.5167 140.825 33.9732 139.955 32.7992C138.453 30.799 138.54 27.429 139.454 25.2331C140.89 21.7979 143.893 19.7325 147.657 19.7325C147.977 19.7325 148.296 19.7624 148.6 19.7908C148.875 19.8166 149.137 19.8412 149.375 19.8412L150.834 13.7318L154.989 13.123L151.442 28.0378C150.942 30.2119 151.203 31.7773 151.813 33.908L148.266 34.3863C148.075 34.0043 148.001 33.7505 147.906 33.4287C147.871 33.3109 147.834 33.1839 147.788 33.0383C146.635 33.908 145.307 34.5167 143.871 34.5167ZM148.636 23.1459H147.286C144.632 23.1459 143.001 26.1462 143.001 28.5161C143.001 29.9945 143.348 31.3425 145.089 31.3425C146.047 31.3425 146.656 30.8859 147.286 30.2337C147.286 29.6902 147.548 27.929 147.657 27.429L148.636 23.1459ZM105.244 20.5242L105.075 20.5803L101.66 33.5383H105.707L108.274 22.5371C108.455 22.5371 108.67 22.509 108.9 22.4789H108.901C109.166 22.4441 109.452 22.4066 109.732 22.4066C111.32 22.4066 111.624 24.0808 111.32 25.3417L109.362 33.7775H113.409L115.237 26.0809C115.454 25.1461 115.606 24.2329 115.606 23.2763C115.763 23.2225 115.928 23.1582 116.099 23.0917C116.618 22.8893 117.188 22.6676 117.695 22.6676C119.262 22.6676 119.566 24.2982 119.283 25.6027L117.326 34.0167H121.351C121.486 33.4575 121.676 32.7426 121.886 31.9456C122.551 29.4267 123.432 26.0879 123.548 24.2547C123.744 21.1674 121.916 19.4715 118.783 19.4715C117.065 19.4715 115.955 19.9499 114.497 20.8196C113.517 19.8411 112.06 19.4715 110.711 19.4715C108.402 19.4715 107.289 19.8425 105.244 20.5242ZM133.579 19.4715C128.596 19.4715 125.028 23.7329 125.028 28.5161C125.028 30.7337 126.464 32.8426 128.444 33.7775C130.01 34.5167 134.253 34.2993 135.798 33.5383L135.537 30.3641C134.362 30.8424 133.383 30.9728 132.12 30.9728C130.467 30.9728 129.488 30.6467 129.184 28.8857C130.402 28.8857 131.62 28.8857 132.73 28.6465C135.515 28.0377 138.104 26.6245 138.104 23.3851C138.104 20.8413 135.95 19.4715 133.579 19.4715ZM129.184 26.3202C129.662 24.4069 130.816 22.7762 132.969 22.7762C133.948 22.7762 134.449 23.1458 134.449 23.9938C134.449 25.1896 132.838 25.9071 131.881 26.0809C131.273 26.1897 130.293 26.3202 129.184 26.3202ZM153.77 34.147H157.817L161.233 19.841H157.208L153.77 34.147ZM157.556 16.0581C157.556 17.3625 158.514 18.1452 159.775 18.1452C161.276 18.1452 162.582 16.819 162.582 15.3189C162.582 14.0143 161.625 13.2534 160.385 13.2534C158.883 13.2534 157.556 14.5579 157.556 16.0581ZM174.572 28.0377C174.027 30.2554 174.332 31.7773 174.941 33.908L171.395 34.3863C171.188 33.9897 171.104 33.7162 170.991 33.3489C170.962 33.253 170.93 33.1508 170.895 33.0383C169.741 33.9297 168.588 34.3863 167.108 34.3863C161.93 34.3863 161.19 28.8422 162.714 24.9721C164.324 20.8413 167.282 19.3629 171.634 19.3629C173.288 19.3629 174.876 19.8411 176.399 20.45L174.572 28.0377ZM171.764 23.0155C171.606 23.0155 171.417 22.993 171.21 22.9684C170.961 22.939 170.688 22.9067 170.416 22.9067C167.761 22.9067 165.999 26.0158 165.999 28.4074C165.999 29.8858 166.347 31.212 168.088 31.212C169.045 31.212 169.654 30.7555 170.285 30.1249C170.285 29.5597 170.481 27.7986 170.655 27.2985L171.764 23.0155ZM95.1763 32.0817C95.1763 33.3862 96.1336 34.1471 97.3741 34.1471C98.8755 34.1471 100.202 32.8209 100.202 31.3425C100.202 30.038 99.2451 29.2553 97.9827 29.2553C96.5035 29.2553 95.1763 30.5815 95.1763 32.0817Z" fill="#2A609F"/>
<path fill-rule="evenodd" clip-rule="evenodd" d="M21.2854 0.773762C23.3742 1.01292 42.9346 4.44809 42.9346 29.0161C43.0651 28.4073 43.0651 27.6681 43.0651 27.0593V25.6026V3.83933C36.0808 1.64342 28.6396 0.665054 21.2854 0.773762Z" fill="white" fill-opacity="0.301961"/>
</g>
<defs>
<clipPath id="clip0_2162_4900">
<rect width="176.64" height="48" fill="white" transform="translate(0.920044)"/>
</clipPath>
</defs>
</svg>
