<svg width="236" height="48" viewBox="0 0 236 48" fill="none" xmlns="http://www.w3.org/2000/svg">
<g style="mix-blend-mode:luminosity" clip-path="url(#clip0_2162_4954)">
<path fill-rule="evenodd" clip-rule="evenodd" d="M20.8743 0.142824C12.6674 1.48926 5.52394 7.22441 2.50861 14.8882C1.18708 18.247 0.94235 19.7606 0.994754 24.2482C1.0394 28.0643 1.05505 28.2285 1.56017 30.166C2.26007 32.8508 3.85519 36.1763 5.48147 38.3407C6.70867 39.974 9.71365 42.8584 11.2726 43.8996C15.4089 46.6618 19.8531 48 24.8897 48C29.9806 48 34.2333 46.7445 38.3115 44.0376C40.3907 42.6575 43.6394 39.4089 45.0194 37.3296C47.7263 33.2515 48.9818 28.9988 48.9818 23.9078C48.9818 17.0393 46.5162 11.2681 41.5295 6.46395C38.2925 3.34558 34.4781 1.30768 30.0724 0.342911C28.9889 0.105664 28.1945 0.049586 25.366 0.0107936C22.9963 -0.0217376 21.6326 0.0184159 20.8743 0.142824ZM27.56 4.92395C36.0454 6.38459 42.2082 12.3473 43.8186 20.6546C44.1854 22.547 44.1802 25.4912 43.8069 27.3232C42.9951 31.307 41.2025 34.689 38.4366 37.4549C33.2782 42.6132 25.8107 44.4239 19.0443 42.1569C13.1794 40.1919 8.82497 35.9111 6.79565 30.1149C5.27118 25.7608 5.34128 21.714 7.01983 17.1703C8.87084 12.1593 13.1147 7.9141 18.152 6.03437C21.4065 4.8201 24.6989 4.43136 27.56 4.92395ZM13.901 9.20283C13.2687 9.48975 12.3124 10.4076 11.6644 11.3495C11.0314 12.2698 9.87672 14.6732 9.22773 16.4217C8.90814 17.2825 8.51109 18.1707 8.34516 18.3952C7.4686 19.5825 7.43974 19.9916 7.99631 23.3436C8.45093 26.082 8.6879 26.5701 9.87318 27.2095C10.5562 27.5779 10.6322 27.5873 14.1561 27.7333C19.0455 27.9362 20.2589 27.8787 21.1851 27.4005C22.0578 26.95 22.8693 26.1629 23.2718 25.3766C23.4363 25.0554 23.7603 24.0576 23.992 23.1592C24.3819 21.6473 24.4386 21.5233 24.7536 21.4907C24.9407 21.4712 25.1748 21.5082 25.2739 21.5728C25.3729 21.6373 25.6373 22.4189 25.8614 23.3095C26.0856 24.2001 26.4137 25.1772 26.5905 25.4811C26.9931 26.1724 27.9463 27.0597 28.7214 27.4645C29.5007 27.8715 31.0427 27.9311 35.6804 27.7334C39.4401 27.5733 39.8499 27.4948 40.5892 26.7931C41.2663 26.1505 41.4808 25.5144 41.9081 22.8832C42.3749 20.0076 42.3504 19.6966 41.5625 18.5314C41.3094 18.1571 40.9113 17.2996 40.6777 16.6258C39.9732 14.594 38.4812 11.7017 37.5903 10.641C36.5158 9.36167 35.6355 8.89099 34.4531 8.96381C33.4628 9.02479 32.9185 9.35255 32.7329 9.99946C32.4572 10.961 33.2497 11.7475 34.3306 11.5854C34.8772 11.5033 34.9367 11.5284 35.3952 12.0359C35.6622 12.3316 36.131 12.9952 36.437 13.5107C37.0702 14.5777 38.2767 17.3744 38.1037 17.3744C38.0408 17.3744 35.6783 17.4684 32.8537 17.5831C27.4147 17.804 27.2436 17.8292 26.4067 18.5348C25.9922 18.8844 25.8501 18.9208 24.867 18.9298C23.893 18.9388 23.7542 18.907 23.4862 18.615C22.7881 17.8541 22.472 17.8044 16.9268 17.5831C14.0964 17.4701 11.7515 17.3485 11.7159 17.3129C11.5446 17.1418 13.0464 13.9524 13.8685 12.7411C14.5853 11.6848 14.7277 11.5936 15.6662 11.5893C16.3831 11.586 16.5155 11.5414 16.8044 11.2057C17.3908 10.5239 17.1664 9.58014 16.313 9.13872C15.7663 8.85614 14.5962 8.88718 13.901 9.20283ZM16.4462 20.1659C20.5133 20.3287 21.5861 20.41 21.7434 20.5671C21.9154 20.7392 21.8857 20.977 21.5088 22.4381C21.0371 24.2664 20.8258 24.658 20.0954 25.058C19.6267 25.3146 19.471 25.3185 15.361 25.172C13.0143 25.0883 11.0522 24.9612 10.9791 24.8882C10.8002 24.7093 10.1259 20.4584 10.2324 20.1809C10.3362 19.9101 10.0757 19.9108 16.4462 20.1659ZM39.5661 20.4154C39.6332 21.0018 39.037 24.6303 38.8389 24.8419C38.7056 24.984 37.686 25.0609 34.4655 25.1716C28.937 25.3617 29.0887 25.4312 28.2807 22.3408C27.9227 20.9721 27.8896 20.7134 28.0521 20.5509C28.1986 20.4044 29.2518 20.3193 32.657 20.178C35.0851 20.0772 37.6231 20.0024 38.2969 20.0118L39.5219 20.0287L39.5661 20.4154Z" fill="white"/>
<path d="M79.6567 26.3988H73.9251L68.7974 18.6516H67.5895V26.3988H62.7831V7.20467H67.5895V15.0293C68.3434 14.9949 68.9046 14.8273 69.273 14.5265C69.6499 14.2258 70.0954 13.5641 70.6095 12.5413C70.7551 12.2406 70.9222 11.8839 71.1106 11.4715C71.3077 11.059 71.479 10.698 71.6247 10.3886C72.1816 9.22852 72.8585 8.40351 73.6552 7.91366C74.4606 7.41523 75.5186 7.16602 76.8294 7.16602C77.2579 7.16602 77.6134 7.17461 77.8961 7.19179C78.1788 7.20038 78.3974 7.20467 78.5516 7.20467V11.3168H77.4462C76.898 11.3168 76.4183 11.4887 76.007 11.8324C75.6043 12.1675 75.1931 12.8422 74.7733 13.8564C74.4392 14.664 74.1221 15.2785 73.8222 15.6996C73.531 16.1121 73.2569 16.3914 72.9998 16.5374L79.6567 26.3988ZM94.4228 11.9226L87.1361 31.7098H82.3041L84.4888 26.0508L79.1941 11.9226H83.9233L86.9563 20.9976L89.7963 11.9226H94.4228ZM110.268 18.961C110.268 21.2726 109.681 23.1374 108.507 24.5556C107.343 25.9735 105.903 26.6824 104.189 26.6824C103.47 26.6824 102.844 26.6008 102.313 26.4374C101.783 26.2742 101.217 26.0207 100.617 25.6769V31.7098H96.119V11.9226H100.617V13.4309C101.277 12.8637 101.95 12.404 102.635 12.0515C103.32 11.6992 104.112 11.5231 105.012 11.5231C106.682 11.5231 107.976 12.189 108.893 13.5211C109.81 14.8531 110.268 16.6664 110.268 18.961ZM105.668 19.0512C105.668 17.6418 105.449 16.6192 105.012 15.9832C104.584 15.3473 103.911 15.0293 102.994 15.0293C102.592 15.0293 102.19 15.0937 101.786 15.2226C101.393 15.3515 101.003 15.545 100.617 15.8028V23.086C100.857 23.1891 101.118 23.2621 101.401 23.3052C101.692 23.3481 102.035 23.3696 102.429 23.3696C103.526 23.3696 104.34 23.0129 104.871 22.2996C105.402 21.5777 105.668 20.4949 105.668 19.0512ZM119.778 26.7856C118.587 26.7856 117.495 26.6351 116.501 26.3344C115.516 26.0336 114.659 25.5695 113.93 24.9421C113.211 24.3148 112.65 23.5285 112.247 22.5831C111.844 21.6293 111.644 20.5078 111.644 19.2187C111.644 17.8352 111.862 16.6578 112.298 15.6867C112.736 14.7156 113.327 13.9164 114.072 13.2891C114.791 12.6876 115.635 12.245 116.604 11.9613C117.58 11.6691 118.596 11.5231 119.65 11.5231C120.447 11.5231 121.244 11.6175 122.04 11.8067C122.837 11.9871 123.638 12.2793 124.442 12.6832V16.5504H123.864C123.686 16.3785 123.461 16.1894 123.196 15.9832C122.939 15.7769 122.657 15.5879 122.348 15.4161C122.022 15.2356 121.655 15.0851 121.244 14.9649C120.832 14.8359 120.374 14.7714 119.868 14.7714C118.72 14.7714 117.829 15.1754 117.195 15.9832C116.569 16.7824 116.256 17.861 116.256 19.2187C116.256 20.6711 116.591 21.7539 117.26 22.4672C117.936 23.1804 118.831 23.5371 119.945 23.5371C120.51 23.5371 121.008 23.4727 121.437 23.3437C121.865 23.2149 122.233 23.0602 122.541 22.8797C122.841 22.6992 123.098 22.5144 123.312 22.3255C123.527 22.1278 123.711 21.9516 123.864 21.7968H124.442V25.6641C124.185 25.7758 123.887 25.9046 123.543 26.0508C123.21 26.1969 122.867 26.3172 122.516 26.4117C122.079 26.532 121.667 26.6222 121.282 26.6824C120.905 26.7512 120.404 26.7856 119.778 26.7856Z" fill="#0078D7"/>
<path d="M141.559 16.5258C141.559 19.757 140.697 22.275 138.976 24.0797C137.261 25.8758 134.941 26.7738 132.01 26.7738C130.64 26.7738 129.367 26.5977 128.193 26.2453C127.028 25.893 126.155 25.575 125.572 25.2914V20.9473H126.022C126.185 21.0933 126.458 21.3211 126.844 21.6304C127.239 21.9312 127.624 22.1804 128.001 22.3781C128.497 22.6359 129.028 22.8465 129.595 23.0098C130.169 23.1731 130.798 23.2547 131.483 23.2547C132.023 23.2547 132.589 23.1774 133.179 23.0226C133.771 22.8679 134.315 22.5973 134.811 22.2106C135.326 21.8066 135.759 21.291 136.109 20.6636C136.469 20.0363 136.697 19.2156 136.792 18.2016H129.169V14.5406H136.688C136.559 13.7844 136.337 13.1442 136.02 12.6199C135.703 12.0871 135.31 11.6488 134.838 11.3051C134.375 10.9699 133.878 10.7292 133.347 10.5832C132.824 10.4285 132.288 10.3512 131.74 10.3512C131.08 10.3512 130.472 10.4371 129.915 10.609C129.367 10.7723 128.849 10.9828 128.361 11.2406C127.89 11.4984 127.483 11.7691 127.139 12.0527C126.797 12.3277 126.527 12.5468 126.33 12.7101H125.829V8.32734C126.651 7.92343 127.61 7.5754 128.708 7.2832C129.804 6.98242 131.016 6.83203 132.344 6.83203C135.155 6.83203 137.391 7.7043 139.053 9.44882C140.724 11.1848 141.559 13.5438 141.559 16.5258ZM158.406 26.4H153.228L149.808 20.6636H148.653V26.4H144.155V11.9238H148.653V17.7374C149.287 17.7289 149.758 17.6387 150.066 17.4668C150.383 17.2863 150.726 16.818 151.095 16.0618C151.214 15.8039 151.343 15.5203 151.48 15.2109C151.616 14.9016 151.741 14.6266 151.852 14.386C152.306 13.432 152.863 12.7789 153.524 12.4266C154.191 12.0741 155.001 11.898 155.951 11.898C156.286 11.898 156.602 11.9024 156.903 11.9109C157.203 11.9196 157.417 11.9238 157.545 11.9238V15.791H156.671C156.398 15.791 156.149 15.8468 155.927 15.9586C155.712 16.0618 155.523 16.1949 155.361 16.3581C155.198 16.5301 155.074 16.702 154.988 16.8738C154.911 17.0458 154.834 17.2133 154.756 17.3766C154.559 17.8406 154.415 18.1715 154.319 18.3691C154.225 18.5668 154.058 18.7602 153.818 18.9492L158.406 26.4ZM167.119 26.7868C165.929 26.7868 164.837 26.6363 163.843 26.3356C162.857 26.0347 162 25.5707 161.272 24.9433C160.553 24.3159 159.992 23.5297 159.589 22.5844C159.187 21.6304 158.984 20.509 158.984 19.2199C158.984 17.8363 159.203 16.659 159.64 15.6878C160.077 14.7168 160.669 13.9176 161.414 13.2902C162.133 12.6887 162.978 12.2461 163.945 11.9625C164.922 11.6703 165.937 11.5242 166.991 11.5242C167.788 11.5242 168.585 11.6188 169.382 11.8078C170.179 11.9883 170.978 12.2804 171.785 12.6844V16.5516H171.206C171.026 16.3796 170.805 16.1906 170.539 15.9844C170.281 15.7781 169.998 15.5891 169.69 15.4172C169.364 15.2367 168.995 15.0863 168.585 14.966C168.173 14.8372 167.715 14.7726 167.209 14.7726C166.062 14.7726 165.17 15.1765 164.537 15.9844C163.911 16.7836 163.599 17.8621 163.599 19.2199C163.599 20.6723 163.932 21.755 164.601 22.4683C165.277 23.1816 166.174 23.5382 167.287 23.5382C167.852 23.5382 168.349 23.4738 168.777 23.3449C169.206 23.2161 169.574 23.0613 169.883 22.8808C170.182 22.7004 170.439 22.5156 170.653 22.3266C170.868 22.129 171.051 21.9527 171.206 21.798H171.785V25.6652C171.527 25.777 171.228 25.9058 170.885 26.052C170.55 26.198 170.208 26.3184 169.857 26.4129C169.42 26.5331 169.008 26.6234 168.623 26.6836C168.246 26.7523 167.745 26.7868 167.119 26.7868ZM187.488 26.4H182.991V15.1207H178.415V26.4H173.918V11.9238H187.488V26.4ZM198.322 26.7868C195.598 26.7868 193.507 26.1336 192.051 24.8274C190.604 23.5211 189.88 21.6606 189.88 19.2457C189.88 16.8825 190.556 14.9961 191.91 13.5868C193.263 12.1773 195.157 11.4727 197.59 11.4727C199.8 11.4727 201.462 12.07 202.576 13.2644C203.69 14.459 204.246 16.1692 204.246 18.3949V20.0191H194.39C194.433 20.6894 194.574 21.2524 194.814 21.7077C195.053 22.1546 195.371 22.5112 195.765 22.7776C196.151 23.0442 196.601 23.2375 197.113 23.3578C197.628 23.4695 198.19 23.5254 198.798 23.5254C199.319 23.5254 199.834 23.4695 200.34 23.3578C200.845 23.2375 201.308 23.0828 201.728 22.8937C202.097 22.7305 202.435 22.5542 202.743 22.3652C203.06 22.1761 203.317 22.0086 203.514 21.8626H203.989V25.5878C203.622 25.734 203.283 25.8715 202.974 26.0004C202.675 26.1207 202.259 26.2453 201.728 26.3742C201.239 26.5031 200.734 26.602 200.211 26.6707C199.698 26.748 199.067 26.7868 198.322 26.7868ZM199.813 17.2992C199.788 16.3453 199.565 15.6192 199.145 15.1207C198.734 14.6222 198.099 14.373 197.243 14.373C196.368 14.373 195.683 14.6352 195.187 15.1594C194.698 15.6836 194.428 16.3969 194.376 17.2992H199.813ZM220.709 18.9621C220.709 21.2738 220.122 23.1386 218.948 24.5567C217.783 25.9746 216.343 26.6836 214.631 26.6836C213.911 26.6836 213.286 26.602 212.755 26.4386C212.224 26.2754 211.657 26.0219 211.058 25.6781V31.7109H206.56V11.9238H211.058V13.432C211.717 12.8649 212.39 12.4051 213.075 12.0527C213.761 11.7004 214.554 11.5242 215.452 11.5242C217.124 11.5242 218.417 12.1902 219.335 13.5223C220.25 14.8543 220.709 16.6675 220.709 18.9621ZM216.108 19.0524C216.108 17.643 215.89 16.6204 215.452 15.9844C215.024 15.3485 214.352 15.0304 213.435 15.0304C213.032 15.0304 212.63 15.0949 212.227 15.2238C211.833 15.3527 211.443 15.5461 211.058 15.8039V23.0871C211.297 23.1902 211.559 23.2633 211.842 23.3063C212.133 23.3492 212.475 23.3707 212.869 23.3707C213.966 23.3707 214.78 23.0141 215.311 22.3008C215.842 21.5789 216.108 20.4961 216.108 19.0524ZM234.987 15.0691H230.514V26.4H226.017V15.0691H221.544V11.9238H234.987V15.0691Z" fill="white"/>
<path d="M70.6973 45.5986H68.0756V40.958H64.5077V45.5986H61.886V35.1292H64.5077V38.9612H68.0756V35.1292H70.6973V45.5986ZM77.062 43.5385V41.8931C76.6461 41.9354 76.3097 41.9728 76.0526 42.0057C75.7956 42.0338 75.5433 42.0923 75.2956 42.1814C75.0806 42.2564 74.9124 42.3712 74.791 42.5261C74.674 42.676 74.6157 42.8775 74.6157 43.1308C74.6157 43.501 74.7138 43.7564 74.9101 43.897C75.1109 44.033 75.4054 44.101 75.7932 44.101C76.0083 44.101 76.2279 44.0517 76.4522 43.9533C76.6765 43.8549 76.8797 43.7166 77.062 43.5385ZM77.062 44.7619C76.8939 44.9025 76.742 45.0292 76.6064 45.1416C76.4757 45.2541 76.298 45.3666 76.0736 45.4791C75.854 45.5869 75.639 45.669 75.4289 45.7253C75.2232 45.7814 74.9334 45.8096 74.5596 45.8096C73.8633 45.8096 73.2839 45.5752 72.8212 45.1064C72.3632 44.6377 72.1343 44.0471 72.1343 43.3346C72.1343 42.7487 72.251 42.2752 72.4847 41.9142C72.7183 41.5533 73.0548 41.2674 73.4941 41.0564C73.9381 40.8409 74.4684 40.6909 75.0853 40.6064C75.7022 40.5221 76.3659 40.4564 77.0761 40.4096V40.3674C77.0761 39.9314 76.9148 39.6314 76.5924 39.4674C76.2747 39.2986 75.7956 39.2142 75.1554 39.2142C74.8658 39.2142 74.527 39.2682 74.1389 39.376C73.7511 39.4791 73.3726 39.6126 73.0035 39.7767H72.7931V37.8712C73.0362 37.801 73.4287 37.719 73.9708 37.6253C74.5129 37.5268 75.0597 37.4775 75.611 37.4775C76.9662 37.4775 77.9523 37.7049 78.5692 38.1596C79.1908 38.6096 79.5015 39.2986 79.5015 40.2268V45.5986H77.062V44.7619ZM89.3571 47.5533H87.1772V45.5706H82.6208V47.5533H80.4408V43.8268H81.0085C81.3637 43.0861 81.6464 42.1814 81.8568 41.1126C82.0717 40.044 82.1791 38.9072 82.1791 37.7025H88.579V43.8268H89.3571V47.5533ZM86.1397 43.8268V39.4393H84.4083C84.3289 40.3158 84.1933 41.1292 84.0017 41.8791C83.8148 42.6245 83.5881 43.2736 83.3217 43.8268H86.1397ZM94.6425 45.8096C93.1565 45.8096 92.0162 45.4533 91.2217 44.7409C90.432 44.0284 90.0371 43.0134 90.0371 41.6962C90.0371 40.4072 90.4062 39.3783 91.1447 38.6096C91.883 37.8409 92.9157 37.4564 94.2429 37.4564C95.4485 37.4564 96.3552 37.7822 96.9627 38.4338C97.57 39.0854 97.8744 40.0182 97.8744 41.2322V42.1182H92.4975C92.5209 42.4838 92.5979 42.7909 92.7289 43.0393C92.8597 43.283 93.0326 43.4775 93.2476 43.6229C93.4579 43.7682 93.7032 43.8736 93.9836 43.9393C94.264 44.0002 94.5701 44.0308 94.9018 44.0308C95.1869 44.0308 95.4674 44.0002 95.743 43.9393C96.0188 43.8736 96.2711 43.7893 96.5 43.6861C96.701 43.597 96.8856 43.501 97.0536 43.3978C97.2264 43.2947 97.3665 43.2033 97.474 43.1237H97.7342V45.1557C97.5326 45.2354 97.3483 45.3104 97.1803 45.3807C97.0161 45.4463 96.7898 45.5142 96.5 45.5846C96.2337 45.6549 95.9579 45.7088 95.6729 45.7463C95.3926 45.7885 95.049 45.8096 94.6425 45.8096ZM95.4557 40.6346C95.4416 40.1142 95.3201 39.7182 95.0911 39.4463C94.8668 39.1744 94.5209 39.0385 94.0537 39.0385C93.577 39.0385 93.2032 39.1814 92.9321 39.4674C92.6658 39.7533 92.5185 40.1424 92.4905 40.6346H95.4557ZM110.87 45.5986H108.108L106.369 42.4978H105.774V45.5986H103.335V42.4978H102.739L100.966 45.5986H98.266L100.586 41.6118C100.484 41.5416 100.392 41.4385 100.314 41.3025C100.239 41.1619 100.159 40.9791 100.075 40.7541C99.9585 40.4354 99.8251 40.2033 99.6753 40.058C99.5256 39.9126 99.3364 39.8401 99.108 39.8401H98.5819V37.7025C98.6664 37.7025 98.8017 37.7002 98.9889 37.6955C99.1752 37.6909 99.3672 37.6885 99.563 37.6885C100.091 37.6885 100.533 37.7869 100.888 37.9838C101.243 38.176 101.531 38.5229 101.75 39.0245C101.797 39.1322 101.855 39.2775 101.926 39.4604C102 39.6385 102.068 39.8002 102.129 39.9456C102.307 40.3393 102.463 40.5994 102.599 40.7261C102.739 40.8525 102.984 40.9158 103.335 40.9158V37.7025H105.774V40.9158C106.125 40.9112 106.367 40.8503 106.503 40.733C106.638 40.6112 106.798 40.3487 106.98 39.9456C107.026 39.833 107.087 39.683 107.161 39.4955C107.241 39.3033 107.306 39.1463 107.358 39.0245C107.578 38.5276 107.868 38.1807 108.227 37.9838C108.587 37.7869 109.027 37.6885 109.545 37.6885C109.723 37.6885 109.912 37.6909 110.112 37.6955C110.319 37.7002 110.456 37.7025 110.526 37.7025V39.8118H110.001C109.791 39.8118 109.608 39.8752 109.454 40.0017C109.304 40.1284 109.169 40.3416 109.048 40.6416C108.973 40.8432 108.896 41.0237 108.816 41.183C108.742 41.3424 108.644 41.4712 108.522 41.5698L110.87 45.5986ZM119.296 45.5986H116.842V42.2166H114.305V45.5986H111.851V37.7025H114.305V40.4377H116.842V37.7025H119.296V45.5986ZM128.177 42.9479C128.177 43.3511 128.097 43.7237 127.939 44.0659C127.779 44.4033 127.572 44.6799 127.315 44.8955C126.997 45.1533 126.668 45.3361 126.327 45.444C125.99 45.5471 125.534 45.5986 124.96 45.5986H121.175V37.7025H123.621V40.3674H124.967C125.533 40.3674 125.987 40.4072 126.333 40.4869C126.684 40.5666 127.016 40.7237 127.328 40.958C127.605 41.1643 127.815 41.4432 127.96 41.7947C128.105 42.1463 128.177 42.5308 128.177 42.9479ZM125.479 43.63C125.558 43.5268 125.612 43.4213 125.639 43.3134C125.668 43.201 125.682 43.0861 125.682 42.969C125.682 42.6314 125.582 42.3807 125.38 42.2166C125.18 42.0525 124.889 41.9706 124.511 41.9706H123.621V44.0025H124.511C124.763 44.0025 124.969 43.9674 125.128 43.897C125.286 43.8221 125.403 43.733 125.479 43.63ZM131.429 45.5986H128.975V37.7025H131.429V45.5986ZM137.347 45.8096C135.86 45.8096 134.719 45.4533 133.925 44.7409C133.135 44.0284 132.741 43.0134 132.741 41.6962C132.741 40.4072 133.11 39.3783 133.848 38.6096C134.587 37.8409 135.619 37.4564 136.946 37.4564C138.151 37.4564 139.058 37.7822 139.666 38.4338C140.274 39.0854 140.578 40.0182 140.578 41.2322V42.1182H135.201C135.224 42.4838 135.302 42.7909 135.432 43.0393C135.563 43.283 135.736 43.4775 135.95 43.6229C136.161 43.7682 136.406 43.8736 136.687 43.9393C136.967 44.0002 137.274 44.0308 137.605 44.0308C137.891 44.0308 138.17 44.0002 138.446 43.9393C138.722 43.8736 138.975 43.7893 139.203 43.6861C139.404 43.597 139.589 43.501 139.757 43.3978C139.93 43.2947 140.07 43.2033 140.178 43.1237H140.437V45.1557C140.236 45.2354 140.051 45.3104 139.884 45.3807C139.72 45.4463 139.492 45.5142 139.203 45.5846C138.937 45.6549 138.661 45.7088 138.377 45.7463C138.095 45.7885 137.752 45.8096 137.347 45.8096ZM138.159 40.6346C138.144 40.1142 138.023 39.7182 137.795 39.4463C137.57 39.1744 137.225 39.0385 136.756 39.0385C136.28 39.0385 135.906 39.1814 135.636 39.4674C135.369 39.7533 135.221 40.1424 135.194 40.6346H138.159ZM153.6 41.6541C153.6 42.9525 153.247 43.9767 152.536 44.7268C151.83 45.472 150.83 45.8448 149.536 45.8448C148.251 45.8448 147.251 45.472 146.536 44.7268C145.824 43.9767 145.47 42.9525 145.47 41.6541C145.47 40.3416 145.824 39.315 146.536 38.5744C147.251 37.8292 148.251 37.4564 149.536 37.4564C150.825 37.4564 151.825 37.8314 152.536 38.5814C153.247 39.3268 153.6 40.3511 153.6 41.6541ZM151.085 41.6682C151.085 41.1994 151.046 40.8104 150.965 40.501C150.891 40.1869 150.786 39.9361 150.65 39.7487C150.506 39.5517 150.342 39.4158 150.159 39.3409C149.977 39.2612 149.769 39.2213 149.536 39.2213C149.316 39.2213 149.117 39.2564 148.94 39.3268C148.762 39.3923 148.599 39.5213 148.449 39.7134C148.31 39.8962 148.197 40.1471 148.113 40.4659C148.029 40.7846 147.986 41.1854 147.986 41.6682C147.986 42.1511 148.026 42.5424 148.106 42.8424C148.185 43.1377 148.288 43.3744 148.414 43.5525C148.545 43.7354 148.709 43.869 148.905 43.9533C149.102 44.0377 149.318 44.0799 149.557 44.0799C149.754 44.0799 149.952 44.0377 150.153 43.9533C150.358 43.869 150.522 43.7424 150.644 43.5736C150.789 43.372 150.898 43.1308 150.973 42.8495C151.048 42.5635 151.085 42.1698 151.085 41.6682ZM161.648 38.9541C161.948 39.2588 162.184 39.6361 162.357 40.0861C162.529 40.5314 162.617 41.0869 162.617 41.7525C162.617 42.9854 162.249 43.9767 161.516 44.7268C160.786 45.472 159.8 45.8448 158.557 45.8448C157.192 45.8448 156.179 45.4017 155.515 44.5159C154.851 43.63 154.52 42.3033 154.52 40.5361C154.52 40.1986 154.536 39.8564 154.569 39.5096C154.601 39.158 154.677 38.7338 154.793 38.2369C154.892 37.8245 155.032 37.4142 155.213 37.0064C155.4 36.5939 155.622 36.2564 155.879 35.9939C156.169 35.6939 156.564 35.4361 157.064 35.2206C157.564 35.0002 158.265 34.8456 159.167 34.7564C159.592 34.7142 160.097 34.6791 160.68 34.6511C161.266 34.6229 161.73 34.6041 162.075 34.5947V36.444C161.782 36.458 161.511 36.472 161.263 36.4861C161.02 36.4955 160.739 36.5118 160.422 36.5354C160.226 36.5495 159.969 36.5728 159.65 36.6057C159.333 36.6338 159.062 36.669 158.837 36.7112C158.567 36.7674 158.314 36.8541 158.081 36.9712C157.851 37.0885 157.662 37.2432 157.512 37.4354C157.4 37.5807 157.307 37.7752 157.233 38.019C157.162 38.258 157.111 38.5533 157.079 38.9049C157.424 38.6564 157.788 38.4572 158.172 38.3072C158.555 38.1572 158.969 38.0822 159.412 38.0822C159.852 38.0822 160.263 38.1549 160.646 38.3002C161.029 38.4456 161.364 38.6635 161.648 38.9541ZM159.595 43.6369C159.744 43.4541 159.863 43.2314 159.952 42.969C160.046 42.7017 160.092 42.3245 160.092 41.8369C160.092 41.2698 159.947 40.815 159.658 40.4728C159.368 40.1261 158.984 39.9525 158.508 39.9525C158.288 39.9525 158.057 39.9807 157.814 40.0369C157.572 40.0931 157.317 40.1962 157.05 40.3463C157.05 40.3931 157.048 40.4612 157.043 40.5503C157.043 40.6346 157.043 40.7118 157.043 40.7822C157.043 41.4619 157.064 41.9775 157.106 42.3292C157.148 42.6807 157.242 43.0064 157.386 43.3064C157.508 43.5596 157.672 43.7517 157.878 43.883C158.083 44.0142 158.322 44.0799 158.592 44.0799C158.746 44.0799 158.917 44.0448 159.104 43.9744C159.295 43.9041 159.459 43.7915 159.595 43.6369ZM172.906 45.5986H170.495V40.6416L168.897 43.9322H167.858L166.26 40.6416V45.5986H163.919V37.7025H166.59L168.412 41.3588L170.236 37.7025H172.906V45.5986ZM178.816 45.8096C177.329 45.8096 176.188 45.4533 175.394 44.7409C174.605 44.0284 174.21 43.0134 174.21 41.6962C174.21 40.4072 174.579 39.3783 175.318 38.6096C176.056 37.8409 177.089 37.4564 178.416 37.4564C179.621 37.4564 180.527 37.7822 181.135 38.4338C181.743 39.0854 182.047 40.0182 182.047 41.2322V42.1182H176.671C176.693 42.4838 176.771 42.7909 176.902 43.0393C177.032 43.283 177.206 43.4775 177.421 43.6229C177.63 43.7682 177.876 43.8736 178.156 43.9393C178.437 44.0002 178.743 44.0308 179.074 44.0308C179.36 44.0308 179.64 44.0002 179.915 43.9393C180.191 43.8736 180.444 43.7893 180.672 43.6861C180.874 43.597 181.059 43.501 181.226 43.3978C181.4 43.2947 181.54 43.2033 181.648 43.1237H181.907V45.1557C181.706 45.2354 181.521 45.3104 181.353 45.3807C181.19 45.4463 180.963 45.5142 180.672 45.5846C180.407 45.6549 180.131 45.7088 179.846 45.7463C179.566 45.7885 179.222 45.8096 178.816 45.8096ZM179.628 40.6346C179.615 40.1142 179.493 39.7182 179.264 39.4463C179.039 39.1744 178.694 39.0385 178.226 39.0385C177.75 39.0385 177.376 39.1814 177.105 39.4674C176.838 39.7533 176.691 40.1424 176.663 40.6346H179.628ZM190.752 45.5986H188.3V42.2166H185.761V45.5986H183.308V37.7025H185.761V40.4377H188.3V37.7025H190.752V45.5986ZM200.076 45.5986H197.622V42.2166H195.085V45.5986H192.631V37.7025H195.085V40.4377H197.622V37.7025H200.076V45.5986ZM209.433 45.5986H207.023V40.8033L204.008 45.5986H201.954V37.7025H204.366V41.9915L207.128 37.7025H209.433V45.5986ZM219.094 45.5986H216.268L214.404 42.4698H213.772V45.5986H211.319V37.7025H213.772V40.8736C214.118 40.869 214.375 40.8198 214.544 40.7261C214.717 40.6276 214.904 40.372 215.106 39.9596C215.17 39.819 215.24 39.6643 215.315 39.4955C215.39 39.3268 215.457 39.1767 215.518 39.0456C215.765 38.5253 216.07 38.169 216.43 37.9767C216.794 37.7846 217.236 37.6885 217.754 37.6885C217.937 37.6885 218.11 37.6909 218.273 37.6955C218.437 37.7002 218.553 37.7025 218.624 37.7025V39.8118H218.148C217.998 39.8118 217.862 39.8424 217.741 39.9033C217.624 39.9596 217.521 40.0322 217.432 40.1213C217.343 40.215 217.275 40.3088 217.229 40.4025C217.187 40.4962 217.145 40.5877 217.102 40.6767C216.996 40.93 216.915 41.1104 216.863 41.2182C216.813 41.3261 216.721 41.4314 216.591 41.5346L219.094 45.5986ZM227.464 45.5986H225.051V40.8033L222.037 45.5986H219.983V37.7025H222.395V41.9915L225.157 37.7025H227.464V45.5986Z" fill="#0078D7"/>
</g>
<defs>
<clipPath id="clip0_2162_4954">
<rect width="234.24" height="48" fill="white" transform="translate(0.988281)"/>
</clipPath>
</defs>
</svg>
