<svg width="218" height="48" viewBox="0 0 218 48" fill="none" xmlns="http://www.w3.org/2000/svg">
<g style="mix-blend-mode:luminosity" clip-path="url(#clip0_2162_4868)">
<path d="M88.5229 47.04H5.42712C2.51635 47.04 0.160004 44.6389 0.160004 41.6728V6.32713C0.160004 3.36106 2.51635 0.959961 5.42712 0.959961H88.5229V47.04Z" fill="url(#paint0_linear_2162_4868)"/>
<path d="M211.466 47.04H88.5204V0.959961H211.466C214.377 0.959961 216.734 3.36106 216.734 6.32713V41.6904C216.734 44.6389 214.377 47.04 211.466 47.04Z" fill="url(#paint1_linear_2162_4868)"/>
<path d="M27.1426 28.9065C27.1426 30.6543 26.9 32.0492 26.4322 33.0908C25.9643 34.1325 25.3406 34.927 24.5956 35.4566C23.8506 36.0039 23.0189 36.357 22.1006 36.5336C21.1824 36.7101 20.2814 36.7984 19.3978 36.7984H10.6135V11.3925H20.2814C21.5289 11.3925 22.5338 11.6044 23.3309 12.0282C24.1278 12.4519 24.7515 12.9992 25.2193 13.6878C25.6872 14.3763 25.999 15.1355 26.1723 15.9653C26.3455 16.7951 26.4149 17.6249 26.3975 18.4194C26.3629 20.7322 25.7911 22.3035 24.6823 23.1333C25.41 23.4864 25.999 24.1219 26.4668 25.0401C26.9173 25.9757 27.1426 27.2646 27.1426 28.9065ZM21.7368 18.5076C21.7368 17.7131 21.6502 17.1129 21.4596 16.7245C21.269 16.336 20.9052 16.1418 20.3508 16.1418H15.3435V21.2089H19.9002C20.6106 21.2089 21.0785 20.9618 21.3384 20.4851C21.5983 19.9906 21.7368 19.3198 21.7368 18.5076ZM22.3952 28.9419C22.3952 28.2356 22.3433 27.6707 22.2219 27.2646C22.118 26.8585 21.9621 26.523 21.7888 26.2936C21.6155 26.0641 21.425 25.9051 21.1997 25.8345C20.9918 25.7639 20.7839 25.7286 20.576 25.7286H15.3435V31.8196H20.1775C21.0091 31.8196 21.5983 31.5901 21.9101 31.1488C22.2392 30.6897 22.3952 29.9658 22.3952 28.9419ZM46.0973 36.7984H30.2613V11.3925H45.82V16.3184H34.9739V20.997H44.9537V25.9228H34.9739V31.8373H46.0973V36.7984ZM64.4282 29.295C64.4282 34.6444 61.6041 37.328 55.9557 37.328C53.2182 37.328 51.1218 36.5336 49.6838 34.9622C48.2456 33.3733 47.5353 30.9369 47.5353 27.6354H52.1267C52.1614 28.3592 52.248 29.0478 52.3693 29.6481C52.4905 30.266 52.7158 30.7779 53.0277 31.2194C53.3395 31.6607 53.738 31.9962 54.2405 32.2434C54.7429 32.4905 55.384 32.6141 56.1637 32.6141C57.4458 32.6141 58.3641 32.3669 58.9358 31.8902C59.5076 31.4135 59.8021 30.4602 59.8021 29.0831C59.8021 28.3592 59.6808 27.8295 59.4556 27.5118C59.2304 27.194 58.8665 26.9469 58.3814 26.7526C57.827 26.5408 57.1513 26.3818 56.3716 26.2583C55.5919 26.1347 54.6909 25.9405 53.6861 25.658C52.9064 25.4284 52.1787 25.1637 51.5203 24.8635C50.8619 24.5634 50.2728 24.1573 49.7704 23.61C49.2679 23.0627 48.8867 22.3565 48.6095 21.4913C48.3323 20.6263 48.1937 19.4787 48.1937 18.0662C48.1937 17.0246 48.315 16.1242 48.5749 15.365C48.8175 14.6058 49.164 13.9526 49.5798 13.423C49.9956 12.8933 50.4807 12.4696 51.0178 12.1341C51.5723 11.7986 52.1267 11.5515 52.6985 11.3749C53.2702 11.1984 53.842 11.0748 54.4138 11.0218C54.9855 10.9688 55.5226 10.9336 55.9904 10.9336C57.6191 10.9336 58.9532 11.1984 59.9581 11.7104C60.9803 12.2223 61.76 12.9109 62.3317 13.723C62.9036 14.5528 63.2846 15.4886 63.4753 16.5126C63.6658 17.5543 63.7699 18.5783 63.7699 19.5845H59.2651C59.1957 19.1608 59.1438 18.6841 59.0918 18.1722C59.0571 17.6602 58.9358 17.2012 58.7626 16.8303C58.6066 16.495 58.3468 16.1948 57.9482 15.9299C57.5498 15.6652 56.9261 15.5239 56.077 15.5239C55.4187 15.5239 54.8642 15.5768 54.4311 15.7005C53.9979 15.8241 53.6688 16.0005 53.4262 16.2301C53.1836 16.4596 53.0103 16.7775 52.9237 17.1482C52.837 17.5189 52.7851 17.978 52.7851 18.49C52.7851 19.108 52.9237 19.5493 53.1836 19.8141C53.4435 20.079 53.9459 20.3085 54.6737 20.5027C55.4359 20.7145 56.1983 20.891 56.978 21.0324C57.7577 21.1736 58.5027 21.3501 59.2304 21.5443C59.9581 21.7385 60.6338 22.0034 61.2576 22.3389C61.8813 22.6742 62.4357 23.1156 62.9036 23.6982C63.3713 24.2809 63.7525 25.0224 64.0124 25.9228C64.3069 26.8232 64.4282 27.9531 64.4282 29.295ZM81.633 16.3008H75.9327V36.7984H71.2027V16.3008H65.5025V11.3925H81.6156V16.3008H81.633Z" fill="white"/>
<path d="M112.204 27.4552C112.1 28.7793 111.875 30.0328 111.528 31.2334C111.181 32.4339 110.679 33.4755 110.021 34.3583C109.362 35.2587 108.496 35.9649 107.439 36.4946C106.382 37.0242 105.1 37.2891 103.593 37.2891C101.86 37.2891 100.387 36.9889 99.1745 36.3886C97.9617 35.7884 96.9914 34.9056 96.2291 33.7756C95.4841 32.6281 94.9296 31.2156 94.6004 29.5384C94.2539 27.8611 94.0806 25.9544 94.0806 23.8004C94.0806 21.8231 94.2713 20.0223 94.6351 18.4333C94.9989 16.8443 95.5707 15.485 96.3504 14.355C97.1301 13.2427 98.1175 12.3775 99.2958 11.7774C100.491 11.177 101.912 10.877 103.558 10.877C105.221 10.877 106.573 11.1417 107.63 11.6714C108.686 12.2011 109.518 12.8896 110.159 13.737C110.783 14.5844 111.233 15.5556 111.511 16.6325C111.788 17.7095 111.978 18.8041 112.1 19.881H107.63C107.526 19.316 107.404 18.7687 107.266 18.2568C107.145 17.7447 106.937 17.2858 106.677 16.9149C106.417 16.5442 106.053 16.2441 105.602 16.0145C105.152 15.785 104.546 15.6791 103.783 15.6791C102.865 15.6791 102.085 15.838 101.462 16.1381C100.838 16.4382 100.318 16.9327 99.9368 17.6212C99.5557 18.3098 99.2784 19.2102 99.1052 20.3224C98.9319 21.4347 98.8627 22.8118 98.8627 24.4537C98.8627 26.1133 98.9839 27.4374 99.2092 28.4791C99.4344 29.5031 99.7635 30.3152 100.179 30.8802C100.595 31.4628 101.098 31.8513 101.704 32.0632C102.31 32.275 102.969 32.3809 103.714 32.3809C104.476 32.3809 105.065 32.2573 105.516 32.0278C105.966 31.7983 106.313 31.4628 106.573 31.0214C106.833 30.5801 107.04 30.0681 107.179 29.4678C107.335 28.8675 107.474 28.1966 107.63 27.4374H112.204V27.4552ZM131.176 36.7947H126.463V25.8308H119.36V36.7947H114.647V11.3889H119.36V20.8697H126.463V11.3889H131.176V36.7947ZM151.049 36.7947H146.11L144.811 31.5511H138.539L137.257 36.7947H132.493L139.319 11.3889H143.996L151.049 36.7947ZM143.634 26.8195L141.692 18.6451L139.701 26.8195H143.634ZM164.893 36.7947L157.684 21.3288V36.7947H152.972V11.3889H157.598L164.858 26.7489V11.3889H169.535V36.7947H164.893ZM190.794 36.7947H186.966V34.217C186.688 34.835 186.342 35.3293 185.926 35.7178C185.51 36.1061 185.059 36.4063 184.574 36.6358C184.089 36.8653 183.57 37.0065 183.05 37.0949C182.53 37.1831 182.01 37.2185 181.508 37.2185C179.775 37.2185 178.32 36.883 177.159 36.1945C175.998 35.5059 175.062 34.5701 174.353 33.3696C173.642 32.169 173.14 30.7389 172.845 29.097C172.55 27.4552 172.394 25.6896 172.394 23.8004C172.394 15.1847 175.565 10.877 181.924 10.877C183.501 10.877 184.818 11.1417 185.908 11.6537C187.001 12.1657 187.884 12.872 188.559 13.7194C189.235 14.5844 189.72 15.5732 190.015 16.6678C190.309 17.7801 190.466 18.9277 190.466 20.093H185.649C185.649 19.5809 185.614 19.0512 185.544 18.5039C185.475 17.9566 185.32 17.48 185.077 17.0562C184.835 16.6325 184.453 16.2794 183.951 16.0145C183.449 15.7497 182.773 15.6084 181.906 15.6084C181.04 15.6084 180.295 15.7497 179.706 16.0499C179.099 16.35 178.614 16.8091 178.233 17.4446C177.853 18.0802 177.575 18.91 177.402 19.9164C177.228 20.9227 177.142 22.1409 177.142 23.5533C177.142 25.1069 177.211 26.4488 177.366 27.561C177.523 28.6733 177.782 29.5737 178.164 30.2446C178.545 30.9332 179.047 31.4275 179.672 31.7453C180.295 32.0632 181.092 32.222 182.062 32.222C182.617 32.222 183.137 32.1338 183.639 31.9572C184.141 31.7806 184.574 31.4981 184.938 31.1274C185.303 30.7567 185.596 30.2622 185.805 29.6797C186.012 29.097 186.1 28.3908 186.082 27.561H181.646V22.8824H190.83V36.7947H190.794ZM209.559 36.7947H193.757V11.3889H209.281V16.3147H198.47V20.9934H208.415V25.9191H198.47V31.8336H209.559V36.7947Z" fill="#363636"/>
</g>
<defs>
<linearGradient id="paint0_linear_2162_4868" x1="44.342" y1="47.04" x2="44.342" y2="0.959961" gradientUnits="userSpaceOnUse">
<stop stop-color="#1C1C1C"/>
<stop offset="1" stop-color="#4B4B4B"/>
</linearGradient>
<linearGradient id="paint1_linear_2162_4868" x1="152.627" y1="47.04" x2="152.627" y2="0.959961" gradientUnits="userSpaceOnUse">
<stop stop-color="#BCBCBC"/>
<stop offset="1" stop-color="#F3F3F3"/>
</linearGradient>
<clipPath id="clip0_2162_4868">
<rect width="217.2" height="48" fill="white" transform="translate(0.160004)"/>
</clipPath>
</defs>
</svg>
