<svg width="150" height="48" viewBox="0 0 150 48" fill="none" xmlns="http://www.w3.org/2000/svg">
<g style="mix-blend-mode:luminosity" clip-path="url(#clip0_2162_4918)">
<path fill-rule="evenodd" clip-rule="evenodd" d="M36.9885 16.9624C38.5147 17.0607 40.0387 16.7399 41.3961 16.0352C42.7535 15.3305 43.8927 14.2684 44.6909 12.9635C45.7311 11.4875 46.2261 9.69582 46.0913 7.89506C45.9797 6.87209 45.6458 6.51688 45.0898 6.82946C43.6916 7.60786 42.1421 8.07572 40.5467 8.20119C38.8453 8.42363 37.1282 8.50141 35.4137 8.43368C33.9287 8.35618 31.6388 8.17794 28.5441 7.89894C25.4496 7.61995 23.3053 7.44945 22.1115 7.38746C21.2553 7.32287 20.457 7.28412 19.7164 7.27121C18.9759 7.25829 17.7268 7.30479 15.9693 7.4107C14.3882 7.49542 12.8163 7.70532 11.2683 8.03844C9.74403 8.40151 8.26693 8.93983 6.86646 9.64264C5.43761 10.3035 4.16585 11.2612 3.13583 12.452C1.71883 14.0213 0.892828 16.0355 0.799838 18.1481C0.684763 19.1223 0.820034 20.1096 1.19287 21.0169C1.56571 21.9241 2.16379 22.7212 2.93051 23.3327C4.15719 24.2897 5.67415 24.7984 7.22964 24.7743C8.66926 24.8107 10.1003 24.5414 11.428 23.9838C12.4384 23.5627 13.3653 22.9643 14.165 22.2168C14.5758 21.8392 14.9148 21.3902 15.1655 20.8915C15.23 20.7867 15.2644 20.666 15.2644 20.5428C15.2644 20.4197 15.23 20.2989 15.1655 20.1941C14.9551 19.9827 14.7285 19.7884 14.4875 19.6128C14.1871 19.3919 13.9408 19.1058 13.767 18.7759C13.4654 18.3165 13.3566 17.757 13.4638 17.2181C13.5546 16.4669 13.7905 15.7405 14.1582 15.0792C14.6288 14.2732 15.3288 13.6256 16.1688 13.2192C17.2213 12.6854 18.4003 12.4508 19.5769 12.5411H19.6234L13.9394 30.3521C12.8379 33.7932 12.9457 36.7152 14.2628 39.1183C15.5799 41.5214 18.1107 42.8156 21.8548 43.0009C23.6937 43.0984 25.5352 42.862 27.29 42.3035C28.8754 41.8295 30.3657 41.0821 31.6937 40.0947C32.7425 39.3036 33.7153 38.4162 34.5991 37.4442C35.2399 36.7557 35.7814 35.981 36.2078 35.1425C36.335 34.976 36.4237 34.7832 36.4674 34.5781C36.5111 34.3731 36.5089 34.1608 36.4606 33.9569C36.3347 33.7243 36.0119 33.7476 35.4921 34.0265C33.7731 34.9338 31.9017 35.517 29.9718 35.7471C28.3085 36.0481 26.5924 35.7864 25.0944 35.0031C23.8283 34.2591 23.4567 33.0191 23.9797 31.2831C23.9855 31.2521 24.3407 30.1361 25.045 27.9352H32.7164C32.79 27.9468 32.8653 27.9288 32.9259 27.8853C32.9863 27.8418 33.0273 27.7763 33.0399 27.7027L34.546 23.0528L34.5643 22.9559L34.359 22.8164H26.6876C26.889 22.2585 27.2844 21.0572 27.874 19.2128C28.4635 17.3682 28.8774 16.0741 29.1156 15.3301C31.6569 16.2174 34.3039 16.7662 36.9885 16.9624ZM54.2005 28.4951C54.2047 28.4728 54.2041 28.45 54.1985 28.428C54.193 28.406 54.1829 28.3855 54.1687 28.3678C54.1545 28.3502 54.1368 28.3358 54.1164 28.3256C54.0962 28.3155 54.074 28.3099 54.0513 28.3092H40.2387C40.1668 28.3067 40.0959 28.3282 40.0374 28.3703C39.9789 28.4124 39.936 28.4727 39.9152 28.5416L38.6281 32.5406L38.8218 32.7265H52.676C52.7228 32.7355 52.7711 32.7259 52.8109 32.6999C52.8506 32.6739 52.8787 32.6335 52.8892 32.587L54.2005 28.4951ZM92.5527 32.8195L94.8422 25.5647C95.5905 23.3044 95.5686 21.46 94.7764 20.0313C94.4011 19.3406 93.8355 18.772 93.1468 18.3931C92.458 18.0143 91.675 17.8412 90.8908 17.8943C89.2674 17.9585 87.6847 18.4216 86.2827 19.2427C84.4302 20.2945 82.8162 21.7195 81.543 23.4277C81.6648 22.7236 81.6426 22.0021 81.4778 21.3067C81.3129 20.6115 81.009 19.9568 80.5841 19.3822C80.1626 18.884 79.6311 18.4903 79.0317 18.2321C78.4324 17.9739 77.7812 17.8582 77.1295 17.8943C75.5369 17.9575 73.983 18.4042 72.5999 19.1963C70.7752 20.2077 69.1787 21.5849 67.9105 23.2417C68.0458 22.558 68.0324 21.8531 67.8709 21.1751C67.7094 20.4971 67.4038 19.8618 66.9749 19.3125C66.5007 18.8182 65.9233 18.4347 65.2837 18.1894C64.6441 17.9442 63.9583 17.8435 63.2752 17.8943C61.9184 17.9255 60.5894 18.2844 59.4012 18.9405C58.2979 19.4355 57.345 20.2136 56.6391 21.1958C56.5973 21.2359 56.5647 21.2847 56.5441 21.3388C56.5233 21.3928 56.5148 21.451 56.5191 21.5087C56.5235 21.5666 56.5405 21.6227 56.5692 21.6731C56.5977 21.7235 56.6373 21.7669 56.6846 21.8003C56.8868 21.9552 57.1408 22.1645 57.4469 22.4279C57.6352 22.6823 57.7714 22.9715 57.8476 23.2788C57.9237 23.586 57.9382 23.9053 57.8905 24.2182C57.796 25.5958 57.5245 26.9555 57.0827 28.2636C56.4202 30.4025 54.8613 35.0063 52.4059 42.0748L52.3884 42.1717L52.494 42.3064H61.8361C61.903 42.2762 61.9656 42.237 62.022 42.1901C62.0723 42.1488 62.1067 42.0913 62.1189 42.0274L66.0693 29.5647C66.4839 28.2655 67.1286 27.0515 67.9724 25.9803C69.0126 24.7713 69.9207 24.2443 70.6968 24.3994C71.5652 24.5543 71.7318 25.4534 71.1965 27.0963C70.7349 28.6772 70.3975 29.7778 70.1844 30.3977C69.5143 32.4127 68.295 36.3035 66.5264 42.07C66.5177 42.074 66.51 42.0802 66.5041 42.0878C66.4982 42.0954 66.4942 42.1044 66.4925 42.1139C66.4908 42.1234 66.4914 42.1332 66.4943 42.1425C66.4973 42.1516 66.5023 42.16 66.5091 42.1669L66.6271 42.3064H75.976C76.0426 42.2762 76.1049 42.237 76.161 42.1901C76.2109 42.1485 76.2451 42.0911 76.2579 42.0274L79.5807 30.4025L79.8355 29.5656C80.2158 28.2522 80.8638 27.032 81.7385 25.9813C82.7787 24.7723 83.6868 24.2453 84.4629 24.4003C85.3314 24.5553 85.498 25.4543 84.9627 27.0973L82.0978 36.1191C81.4354 38.258 81.5607 39.9694 82.4737 41.2533C82.9632 41.9063 83.6094 42.4255 84.3525 42.7627C85.0955 43.1 85.9117 43.2446 86.7253 43.183C88.0821 43.1518 89.4112 42.793 90.5993 42.1368C91.6906 41.6483 92.6383 40.8879 93.3517 39.9281C93.4267 39.864 93.4743 39.7736 93.485 39.6755C93.4955 39.5774 93.4684 39.4789 93.4088 39.4001C93.2301 39.2252 93.0215 39.0834 92.7929 38.9817C92.4649 38.7922 92.2106 38.4971 92.0714 38.1447C91.8459 37.5521 91.7545 36.9169 91.8041 36.2848C91.8985 35.1018 92.1488 33.9367 92.5489 32.8195H92.5527ZM121.608 31.5176C122.72 28.0146 122.444 24.9609 120.779 22.3563C119.115 19.7517 116.448 18.3103 112.779 18.0319C109.088 17.7976 105.435 18.8674 102.453 21.0543C99.3702 23.1043 97.0701 26.1361 95.9269 29.6576C94.8132 33.1605 95.0966 36.2144 96.7773 38.8189C98.4573 41.4235 101.131 42.865 104.795 43.1433C108.498 43.3997 112.171 42.3357 115.164 40.1402C118.214 38.0668 120.481 35.031 121.604 31.5176H121.608ZM104.965 30.3086C105.526 28.4288 106.419 26.6649 107.602 25.1007C107.983 24.5175 108.507 24.0407 109.123 23.7153C109.738 23.3899 110.428 23.2265 111.124 23.2408C111.71 23.2671 112.265 23.5185 112.672 23.9426C113.079 24.3667 113.308 24.9314 113.309 25.5192C113.464 27.3345 113.213 29.1616 112.574 30.8676C112.024 32.763 111.136 34.5432 109.951 36.1219C109.572 36.6952 109.053 37.1625 108.442 37.4798C107.833 37.797 107.153 37.9538 106.465 37.9354C105.875 37.9066 105.319 37.6511 104.912 37.2223C104.506 36.7935 104.281 36.2245 104.284 35.6337C104.123 33.8306 104.354 32.0141 104.961 30.3086H104.965ZM146.713 32.8195C147.115 31.5486 147.562 30.16 148.054 28.654C148.546 27.148 148.877 26.1173 149.048 25.5618C149.766 23.3014 149.728 21.457 148.936 20.0284C148.562 19.3371 147.996 18.768 147.307 18.3888C146.619 18.0096 145.835 17.8362 145.051 17.8894C143.404 17.9579 141.795 18.4118 140.354 19.2147C138.46 20.2289 136.802 21.6312 135.487 23.3298C135.635 22.6405 135.628 21.927 135.468 21.2405C135.309 20.554 134.999 19.9112 134.562 19.358C134.087 18.8522 133.504 18.4583 132.857 18.205C132.211 17.9516 131.516 17.8453 130.824 17.8934C129.466 17.9243 128.138 18.2832 126.949 18.9396C125.846 19.4343 124.894 20.2123 124.187 21.1948C124.124 21.2629 124.084 21.3516 124.08 21.4452C124.074 21.5389 124.102 21.6313 124.158 21.7063C124.315 21.8618 124.492 21.9949 124.686 22.1015C124.972 22.3076 125.185 22.6014 125.29 22.9384C125.478 23.5395 125.545 24.1718 125.484 24.7984C125.373 25.9803 125.116 27.1438 124.719 28.2626C124.026 30.4016 122.436 35.0053 119.951 42.0738C119.941 42.0983 119.938 42.1244 119.941 42.1503C119.944 42.1761 119.953 42.2009 119.966 42.2231C119.98 42.2453 119.998 42.2643 120.019 42.2787C120.04 42.2931 120.066 42.3026 120.091 42.3064H129.388C129.46 42.2984 129.529 42.2667 129.58 42.2162C129.633 42.1659 129.668 42.0994 129.678 42.0274L133.629 29.5647C134.044 28.2638 134.719 27.0613 135.616 26.0307C136.724 24.7907 137.713 24.2482 138.581 24.4032C139.481 24.5582 139.679 25.4572 139.174 27.1001L136.31 36.1219C135.616 38.2609 135.725 39.9724 136.638 41.2562C137.128 41.9092 137.774 42.4282 138.517 42.7655C139.26 43.1028 140.076 43.2473 140.89 43.1859C142.247 43.1548 143.575 42.7959 144.764 42.1397C145.862 41.6418 146.823 40.8837 147.563 39.931C147.628 39.8581 147.664 39.7645 147.666 39.6672C147.667 39.5699 147.633 39.4752 147.572 39.4001C147.392 39.2252 147.184 39.0834 146.956 38.9817C146.628 38.792 146.375 38.497 146.236 38.1447C146.008 37.5524 145.918 36.9169 145.968 36.2848C146.061 35.1019 146.309 33.9367 146.709 32.8195H146.713Z" fill="white"/>
</g>
<defs>
<clipPath id="clip0_2162_4918">
<rect width="148.8" height="48" fill="white" transform="translate(0.76001)"/>
</clipPath>
</defs>
</svg>
