<svg width="203" height="48" viewBox="0 0 203 48" fill="none" xmlns="http://www.w3.org/2000/svg">
<g style="mix-blend-mode:luminosity" clip-path="url(#clip0_2162_4906)">
<path fill-rule="evenodd" clip-rule="evenodd" d="M146.571 16.1012C146.263 16.298 146.126 16.949 144.802 24.4696C144.437 26.5422 144.028 28.8227 143.894 29.5374C143.759 30.252 143.574 31.5155 143.483 32.3451L143.318 33.8534L144.824 33.7744C146.586 33.6822 146.446 33.9498 147.259 29.1475C147.536 27.5038 148.072 24.4632 148.448 22.3907C149.421 17.0291 149.481 16.4025 149.054 16.1306C148.612 15.8486 146.997 15.8296 146.571 16.1012ZM153.007 16.1197C152.581 16.3912 151.9 19.4938 150.976 25.3792C150.909 25.8081 150.565 27.7241 150.212 29.6374C149.86 31.5507 149.632 33.2755 149.707 33.4707C149.798 33.7094 150.296 33.8254 151.231 33.8254C152.62 33.8254 152.621 33.8251 152.921 32.8207C153.086 32.2682 153.221 31.5956 153.222 31.3263C153.224 30.5753 153.737 28.8876 153.963 28.8876C154.074 28.8876 154.775 29.9987 155.522 31.3565L156.878 33.8254H158.541C160.104 33.8254 160.204 33.7892 160.204 33.2276C160.204 32.8989 160.096 32.5186 159.964 32.383C159.634 32.0413 156.842 27.0488 156.842 26.7995C156.842 26.6883 157.918 25.629 159.234 24.4457C160.549 23.2622 161.664 22.1404 161.71 21.9524C161.772 21.6954 161.355 21.6109 160.021 21.6109H158.249L156.582 23.3002C155.667 24.2292 154.786 24.9895 154.627 24.9895C154.423 24.9895 154.401 24.6225 154.553 23.755C154.672 23.0759 154.883 21.8189 155.022 20.9613C155.162 20.1036 155.384 18.8198 155.519 18.1083C155.84 16.3985 155.564 15.8923 154.311 15.8975C153.782 15.8998 153.196 15.9996 153.007 16.1197ZM52.9564 16.8455C52.3629 16.909 51.7409 17.1262 51.5743 17.3279C51.4075 17.5298 50.9968 19.3068 50.6611 21.2772C49.58 27.6249 48.9678 31.073 48.7392 32.1032C48.6161 32.6567 48.5739 33.2625 48.645 33.4491C48.8447 33.972 51.9304 34.2007 54.3699 33.8735C57.0052 33.52 58.7658 32.626 59.7789 31.1266C60.4037 30.2013 60.5012 29.8053 60.5012 28.1901C60.5012 26.5074 60.4308 26.2494 59.7899 25.577C59.3989 25.1667 59.0787 24.7423 59.0787 24.6337C59.0787 24.525 59.432 24.1373 59.8639 23.7722C60.9427 22.8602 61.4064 21.855 61.4064 20.4296C61.4064 18.974 60.7694 17.9615 59.4604 17.3375C58.5113 16.8848 55.041 16.6223 52.9564 16.8455ZM65.296 17.502C64.7104 18.1332 64.6012 19.2598 65.0789 19.7398C65.5714 20.2347 67.4653 20.1274 67.9614 19.5764C68.4604 19.0226 68.5273 17.6954 68.079 17.245C67.5486 16.712 65.8859 16.8656 65.296 17.502ZM105.16 17.5345C104.544 18.1946 104.423 19.2517 104.908 19.7398C105.401 20.2347 107.294 20.1274 107.79 19.5764C108.29 19.0226 108.357 17.6954 107.908 17.245C107.367 16.7013 105.783 16.8684 105.16 17.5345ZM72.6268 18.5464C71.927 18.7731 71.7772 18.9917 71.4866 20.2091C71.1643 21.5582 71.1193 21.6109 70.2878 21.6109C69.4066 21.6109 69.3867 21.6414 69.3161 23.0936C69.3032 23.36 69.5522 23.6003 69.9412 23.6963C70.5335 23.8423 70.5826 23.9631 70.5257 25.1373C70.4919 25.8421 70.3255 27.0035 70.1567 27.7182C69.9878 28.4329 69.8409 29.8749 69.8307 30.923C69.8132 32.6993 69.8611 32.8711 70.5376 33.4569C71.1379 33.9766 71.5424 34.0853 72.8806 34.0853C74.8932 34.0853 75.4434 33.7321 75.3283 32.5145C75.2398 31.5816 75.2926 31.6099 73.4744 31.5122C73.0562 31.4895 73.0132 31.3064 73.1172 29.9921C73.2755 27.9942 73.7475 25.2166 74.0763 24.3481C74.3216 23.6988 74.4388 23.6506 75.5639 23.7319C76.6851 23.8127 76.8133 23.7605 77.1348 23.0894C77.6786 21.9545 77.3893 21.6109 75.8907 21.6109H74.5821L74.7544 19.9217L74.9266 18.2325L74.1796 18.259C73.769 18.2736 73.0702 18.403 72.6268 18.5464ZM126.383 18.5579C125.789 18.7492 125.494 19.0316 125.39 19.5059C125.011 21.2474 124.866 21.4805 124.106 21.5694C123.233 21.6715 122.97 21.9886 122.964 22.9428C122.961 23.4985 123.109 23.655 123.759 23.7856C124.537 23.9418 124.554 23.9764 124.395 25.0525C124.303 25.661 124.097 26.7436 123.936 27.4583C123.773 28.1729 123.633 29.6735 123.625 30.7931C123.608 32.7105 123.65 32.8648 124.333 33.4569C124.936 33.9795 125.336 34.0853 126.706 34.0853C128.647 34.0853 129.238 33.6793 129.117 32.4285C129.049 31.725 128.934 31.6125 128.262 31.5865C126.709 31.5265 126.77 31.6042 126.916 29.8622C127.116 27.4692 127.582 24.7605 127.892 24.1781C128.108 23.7713 128.398 23.6799 129.316 23.7275C130.638 23.7963 130.911 23.6043 131.025 22.5205C131.107 21.7519 131.088 21.7391 129.685 21.6109C128.872 21.5366 128.284 21.361 128.312 21.2009C128.34 21.0467 128.442 20.3157 128.54 19.5766L128.717 18.2325L127.972 18.259C127.563 18.2736 126.847 18.4082 126.383 18.5579ZM56.9231 19.2884C57.8192 19.6307 58.0351 19.9599 58.0403 20.9912C58.0478 22.5458 56.4813 23.6843 54.329 23.6885L53.588 23.69L53.7615 22.1957C53.8569 21.3737 54.054 20.3215 54.1994 19.8568C54.4285 19.1242 54.5788 19.0121 55.3317 19.0121C55.8094 19.0121 56.5252 19.1363 56.9231 19.2884ZM82.8115 21.4709C80.9512 21.8799 79.4604 22.8589 78.3966 24.3704C77.2556 25.9912 76.9667 26.9107 76.944 28.9947C76.9196 31.2193 77.6704 32.7188 79.1785 33.4574C80.4355 34.0731 83.6618 34.2497 85.0711 33.7802C85.9474 33.4883 86.1175 33.3129 86.1835 32.6339C86.3012 31.423 85.8274 31.1764 84.0881 31.5428C82.834 31.8071 82.5032 31.7894 81.7234 31.4158C78.7223 29.9776 80.2836 24.5266 83.9617 23.6017C84.3646 23.5003 85.1192 23.5837 85.7377 23.7979C86.9853 24.2295 87.3355 24.1476 87.7759 23.3205C88.301 22.335 88.0247 21.83 86.7523 21.4483C85.3714 21.0341 84.7823 21.0374 82.8115 21.4709ZM93.9101 21.4823C90.5901 22.3992 88.5339 25.253 88.4768 29.0233C88.4515 30.6892 88.5316 31.0238 89.1811 31.9651C91.194 34.8841 96.2712 34.7999 98.9574 31.8033C100.155 30.4691 100.549 29.6727 100.956 27.7675C101.61 24.7155 100.216 22.1221 97.5434 21.4161C96.0609 21.0244 95.5336 21.0341 93.9101 21.4823ZM115.719 21.2596C115.506 21.3446 114.946 21.592 114.476 21.8093C113.834 22.1052 113.546 22.1299 113.325 21.9078C113.083 21.6648 110.575 21.4566 110.534 21.6759C110.527 21.7115 110.285 23.2027 109.996 24.9895C109.708 26.7761 109.366 28.8227 109.236 29.5374C109.108 30.252 108.925 31.5155 108.832 32.3451L108.661 33.8534L110.17 33.7744C111.926 33.6825 111.814 33.8974 112.593 29.1516C113.123 25.9219 113.479 25.0817 114.658 24.2843C115.752 23.5445 116.34 23.5346 117.046 24.2438C117.539 24.7392 117.58 24.9848 117.435 26.5627C117.284 28.187 117.082 29.3689 116.486 32.126C116.341 32.7978 116.359 33.2719 116.54 33.4904C116.864 33.8831 119.235 33.947 119.467 33.5692C119.613 33.3326 119.795 32.4384 120.396 29.0176C120.522 28.3029 120.697 26.8411 120.784 25.7691C120.93 23.9962 120.889 23.7378 120.326 22.9104C119.986 22.4101 119.371 21.8379 118.958 21.6385C118.121 21.2339 116.313 21.0224 115.719 21.2596ZM135.499 21.4686C133.55 21.9486 133.047 22.2931 133.047 23.1476C133.047 24.2755 133.57 24.5648 134.765 24.0983C136.668 23.3561 137.831 23.4563 138.307 24.4047C138.823 25.4322 138.594 25.7691 137.377 25.7691C136.163 25.7691 134.962 26.1025 133.327 26.8938C130.455 28.2837 129.808 32.4155 132.263 33.691C133.247 34.2025 135.446 34.1963 136.441 33.6791C137.027 33.3748 137.31 33.3459 137.572 33.5642C137.764 33.7245 138.477 33.8194 139.156 33.7755L140.391 33.6954L141.126 29.4074C141.531 27.049 141.796 24.7524 141.716 24.3038C141.464 22.901 140.54 21.8277 139.254 21.4454C137.879 21.0361 137.238 21.04 135.499 21.4686ZM173.523 21.3784C171.143 21.9187 169.504 23.2126 168.515 25.3325C166.765 29.0849 167.563 32.5039 170.476 33.7339C171.803 34.2942 174.205 34.1778 175.779 33.4768C177.153 32.8646 178.732 31.363 179.431 30.0043C180.165 28.58 180.479 26.1555 180.105 24.8127C179.655 23.1975 178.287 21.8397 176.685 21.4161C175.3 21.0501 174.985 21.0466 173.523 21.3784ZM187.499 21.6058C186.786 21.9714 186.402 22.0421 186.172 21.8506C185.994 21.7022 185.286 21.617 184.6 21.6609L183.351 21.7409L183.192 22.9104C183.103 23.5536 182.714 25.8341 182.324 27.978C181.934 30.1221 181.599 32.2856 181.578 32.7858L181.54 33.6954L182.9 33.7739C184.179 33.848 184.275 33.8098 184.532 33.13C184.683 32.7323 185.033 31.093 185.31 29.487C185.594 27.8494 186.046 26.1737 186.34 25.6721C186.878 24.7555 188.186 23.9499 189.135 23.9499C189.772 23.9499 190.204 23.2331 190.204 22.178C190.204 21.6029 190.06 21.3727 189.623 21.255C188.751 21.0203 188.591 21.0467 187.499 21.6058ZM194.86 21.4477C191.984 22.4068 190.285 24.4218 189.689 27.5784C188.967 31.403 191.069 34.0717 194.551 33.7495C195.362 33.6744 196.286 33.5301 196.606 33.429C198.203 32.9239 196.412 35.663 194.72 36.3119C193.578 36.7503 193.475 36.7491 192.062 36.2752C191.254 36.0045 190.45 35.7436 190.276 35.696C189.956 35.6079 188.914 37.0853 188.912 37.6303C188.91 38.2319 191.053 38.8288 193.203 38.826C197.729 38.8203 199.922 36.768 200.827 31.6909C201.444 28.2306 201.578 27.4146 201.745 26.0864C201.84 25.3317 202.017 24.6523 202.138 24.5768C202.26 24.5008 202.36 23.7885 202.36 22.9938V21.5486L200.744 21.6703C199.746 21.7456 198.744 21.658 198.125 21.4418C196.949 21.0306 196.106 21.0323 194.86 21.4477ZM64.3925 21.9358C64.337 22.1147 64.1063 23.3132 63.88 24.5996C63.6536 25.886 63.3622 27.5233 63.2324 28.2379C62.1823 34.0107 62.1572 33.8254 63.9909 33.8254C65.573 33.8254 65.5636 33.8431 66.3044 29.4799C66.5899 27.7961 67.0011 25.4419 67.2176 24.248C67.434 23.0541 67.5468 21.9725 67.4679 21.8441C67.2413 21.4761 64.5105 21.5575 64.3925 21.9358ZM104.23 22.1957C104.164 22.5175 103.988 23.3651 103.839 24.0799C103.254 26.8871 102.431 31.9234 102.415 32.7858L102.399 33.6954H103.801H105.201L105.516 32.6559C105.795 31.7378 106.886 25.7478 107.328 22.7155L107.488 21.6109H105.918C104.499 21.6109 104.337 21.6668 104.23 22.1957ZM97.0787 24.3748C97.8198 25.3221 97.815 27.6865 97.0672 29.2842C95.8338 31.9207 92.9529 32.5185 92.0418 30.3269C91.2889 28.5171 91.7798 26.4614 93.3605 24.8036C94.273 23.8468 94.5717 23.69 95.4826 23.69C96.3197 23.69 96.6555 23.834 97.0787 24.3748ZM176.296 24.4915C177.442 26.0404 176.626 29.7639 174.866 31.0238C173.929 31.6944 172.363 31.7952 171.815 31.2206C171.292 30.6728 170.808 29.4882 170.808 28.7551C170.808 27.5518 171.847 25.2982 172.784 24.4715C173.968 23.4278 175.516 23.4367 176.296 24.4915ZM197.965 24.4005C198.462 25.0355 198.502 25.3052 198.341 26.9343C198.129 29.0909 197.751 29.9274 196.582 30.8232C195.215 31.8708 193.922 31.6307 193.181 30.1923C192.384 28.6415 192.914 26.4523 194.485 24.8036C195.351 23.8961 195.72 23.69 196.478 23.69C197.184 23.69 197.543 23.8616 197.965 24.4005ZM56.1782 26.5513C56.6452 26.8375 57.1237 27.333 57.2414 27.6524C57.8316 29.2559 56.0794 31.3022 53.8629 31.5977C53.1338 31.6949 52.44 31.6764 52.3209 31.5569C52.1472 31.3822 52.636 27.7691 53.0247 26.3538C53.1675 25.8343 55.2171 25.9627 56.1782 26.5513ZM138.068 28.0711C138.319 28.4796 137.721 30.009 137.024 30.7396C136.219 31.5844 135.005 31.9334 134.459 31.4776C133.461 30.6447 134.525 28.5612 136.131 28.2088C136.497 28.1286 136.914 28.0235 137.056 27.9757C137.545 27.812 137.931 27.8483 138.068 28.0711ZM162.032 31.1317C161.396 31.9449 161.336 33.1078 161.903 33.677C162.531 34.3077 164.143 34.2007 164.813 33.4839C165.437 32.8167 165.58 31.2755 165.066 30.7588C164.895 30.5872 164.263 30.447 163.662 30.447C162.789 30.447 162.46 30.5849 162.032 31.1317Z" fill="white"/>
<path fill-rule="evenodd" clip-rule="evenodd" d="M19.4959 2.13562C17.5638 2.42175 14.3179 3.53327 12.2623 4.61333C7.1158 7.31739 2.94978 12.72 1.35945 18.7524C0.611494 21.5896 0.554855 26.3287 1.23816 28.8878C2.45761 33.4557 4.24862 36.6553 7.3059 39.7274C11.5102 43.952 16.683 46.0799 22.749 46.0799C28.8255 46.0799 34.2292 43.7664 38.4037 39.3779C41.3237 36.3082 43.1001 33.1275 44.0824 29.2111C44.787 26.402 44.7841 21.6641 44.0765 18.8589C42.5175 12.6806 38.0674 7.03854 32.5687 4.26899C28.6377 2.28896 23.798 1.49918 19.4959 2.13562ZM25.7546 4.22299C34.5359 5.59205 41.2926 12.5582 42.5552 21.544C43.4648 28.0167 40.6307 35.1998 35.4838 39.4688C27.4478 46.1335 15.7052 45.503 8.38672 38.0137C1.68637 31.157 0.849953 20.2532 6.4219 12.4069C10.8003 6.24175 18.3106 3.06236 25.7546 4.22299ZM21.0596 8.24907C17.7575 8.80443 15.8464 9.54536 13.4587 11.1961C10.9112 12.957 8.45629 16.5262 7.45694 19.9218C6.81502 22.1023 6.86778 26.3651 7.5635 28.5572C9.92091 35.9846 16.9404 40.6442 24.4899 39.7937C30.2586 39.1434 35.1928 35.3276 37.4152 29.7974C38.2182 27.7986 38.2506 27.5779 38.2506 24.08C38.2506 20.5854 38.2178 20.3595 37.4175 18.3626C35.5574 13.7203 31.738 10.1818 27.0912 8.7956C25.6958 8.37952 22.1792 8.06092 21.0596 8.24907ZM21.0596 12.9051L21.1889 14.7243L22.0179 14.8049L22.8468 14.8854L22.923 12.9857L22.9994 11.0859H24.0339H25.0685L25.1468 12.7652C25.19 13.6889 25.3376 14.5806 25.475 14.7469C25.6123 14.9132 26.1976 15.1253 26.7759 15.218C28.225 15.4509 30.1994 16.5023 30.7376 17.328C31.7121 18.8221 31.4886 20.9531 30.2335 22.1379C29.3759 22.9474 29.4256 23.2078 30.5537 23.8201C31.8924 24.5464 32.4645 25.6552 32.4735 27.54C32.4891 30.7982 30.7283 32.5765 27.0863 32.9806L25.3271 33.1758L25.1978 35.1249L25.0685 37.074L24.2705 37.1522C23.1853 37.2585 22.9111 36.8246 22.8191 34.8551C22.741 33.1799 22.7389 33.1758 21.9649 33.1758H21.1889L21.0596 35.1249L20.9303 37.074L20.1324 37.1522C19.0472 37.2585 18.7731 36.8246 18.681 34.8551L18.6027 33.1758L16.3397 33.1007L14.0766 33.0256V31.8663C14.0766 30.7106 14.0794 30.707 14.9989 30.707C16.9813 30.707 16.9215 30.9166 16.9215 23.9562C16.9215 19.268 16.8421 17.6937 16.5983 17.5401C16.4206 17.428 15.7513 17.275 15.1111 17.1999C13.9483 17.0634 13.9472 17.0622 13.9472 16.0237V14.9842L16.3397 14.9093L18.732 14.8347V13.0686C18.732 12.0972 18.815 11.219 18.9166 11.1168C19.0182 11.0147 19.513 10.9661 20.0158 11.0084L20.9303 11.0859L21.0596 12.9051ZM21.2321 17.6264C21.1373 17.7214 21.0596 18.8304 21.0596 20.0903C21.0596 22.3279 21.0749 22.3847 21.7182 22.547C22.0805 22.6382 23.031 22.6584 23.8306 22.5919C25.0591 22.4895 25.3982 22.343 26.017 21.647C27.4069 20.0841 26.7077 18.0294 24.6445 17.6147C23.5797 17.4008 21.4494 17.4081 21.2321 17.6264ZM21.1701 25.3349C21.0976 25.5249 21.0721 26.7237 21.1137 27.9987L21.1889 30.3171L23.5665 30.314C26.3646 30.3101 27.16 29.9018 27.7742 28.1552C28.1275 27.1497 28.1177 27.0332 27.6199 26.3596C27.327 25.9633 26.808 25.4947 26.466 25.3183C25.5883 24.8651 21.3444 24.8783 21.1701 25.3349Z" fill="#FFB629"/>
</g>
<defs>
<clipPath id="clip0_2162_4906">
<rect width="202" height="48" fill="white" transform="translate(0.76001)"/>
</clipPath>
</defs>
</svg>
