<svg width="186" height="48" viewBox="0 0 186 48" fill="none" xmlns="http://www.w3.org/2000/svg">
<g style="mix-blend-mode:luminosity" clip-path="url(#clip0_2162_4930)">
<path d="M0.775093 8.90276C0.758669 8.64095 0.84257 8.38286 1.00894 8.18352C1.09783 8.08938 1.20547 8.01603 1.32451 7.96847C1.44356 7.92091 1.57121 7.9002 1.69877 7.90778H22.5575C22.6904 7.90036 22.8232 7.92099 22.9479 7.96843C23.0726 8.01587 23.1865 8.08907 23.2824 8.18352C23.4532 8.39511 23.5407 8.66443 23.528 8.93874V14.2733C23.5221 14.5299 23.4361 14.7778 23.2824 14.9806C23.196 15.0919 23.0855 15.1812 22.9598 15.2415C22.834 15.3018 22.6963 15.3315 22.5575 15.3282H8.91281V20.6867H19.4358C19.6723 20.6754 19.906 20.7427 20.1022 20.8785C20.1936 20.9565 20.2648 21.0563 20.3096 21.1693C20.3545 21.2822 20.3717 21.4046 20.3594 21.5259V26.1171C20.3574 26.3305 20.2782 26.5355 20.1373 26.6926C20.0522 26.7892 19.9473 26.8652 19.8299 26.915C19.7126 26.9647 19.5859 26.987 19.4591 26.9802H8.93621V32.5065H23.0837C23.2133 32.4884 23.3452 32.5013 23.469 32.5445C23.593 32.5875 23.7052 32.6597 23.7972 32.7552C23.889 32.8506 23.958 32.9666 23.9986 33.0941C24.0391 33.2216 24.0502 33.357 24.0308 33.4896V38.9081C24.0292 38.9827 24.0128 39.0562 23.9827 39.1243C23.9525 39.1923 23.9092 39.2534 23.8554 39.3037C23.8554 39.6992 23.5163 39.9031 23.0019 39.9031H1.69877C1.45271 39.9182 1.21026 39.8369 1.02063 39.6754C0.932684 39.5848 0.865131 39.4757 0.822713 39.3555C0.780295 39.2353 0.764041 39.1072 0.775093 38.98V8.90276Z" fill="white"/>
<path d="M26.1353 39.3869L26.4744 38.7275C26.5913 38.5117 26.7316 38.2839 26.8837 38.0562L36.3542 23.551L31.5721 16.1666L26.7783 8.79412C26.7048 8.6911 26.6384 8.58296 26.5796 8.47046C26.5313 8.36438 26.4997 8.25109 26.486 8.13482C26.486 8.01494 26.5913 7.96698 26.7316 7.96698C26.8741 7.97439 27.0156 7.94119 27.1409 7.87109H34.4601C34.721 7.87201 34.9759 7.95071 35.1938 8.09757C35.4118 8.24442 35.5834 8.45312 35.6878 8.69824L40.8438 16.6341L46.0587 8.71022C46.1587 8.47419 46.3213 8.2716 46.528 8.12541C46.7347 7.97923 46.9771 7.89529 47.2278 7.88307H54.6642C54.7832 7.89311 54.9011 7.91727 55.0149 7.95499C55.0562 7.96987 55.0915 7.99748 55.1169 8.03398C55.1418 8.07051 55.1553 8.11411 55.1553 8.15878C55.1454 8.36565 55.0621 8.5617 54.9213 8.71022L45.2987 23.551L55.1787 38.6556C55.3021 38.8277 55.408 39.0125 55.4941 39.207C55.5671 39.3339 55.6036 39.4793 55.5996 39.6266C55.5996 39.8423 55.4711 39.9502 55.2136 39.9502H47.684C47.4488 39.9518 47.2191 39.8765 47.0291 39.7344C46.8255 39.5842 46.6645 39.3816 46.5614 39.147L40.8438 30.456L35.185 39.147C35.0822 39.3816 34.9209 39.5842 34.7173 39.7344C34.5272 39.8765 34.2977 39.9518 34.0626 39.9502H26.5094C26.4044 39.9518 26.3017 39.9181 26.2171 39.8542C26.1752 39.8229 26.1415 39.7813 26.1191 39.7329C26.0966 39.6849 26.0862 39.6319 26.0886 39.5786C26.0857 39.5114 26.1019 39.4448 26.1353 39.3869Z" fill="white"/>
<path d="M59.8673 8.85515C59.8605 8.60924 59.9438 8.36972 60.1009 8.18383C60.1894 8.08906 60.2969 8.01527 60.4163 7.96763C60.5353 7.92003 60.6634 7.89972 60.7908 7.90809H67.6774C67.8892 7.9111 68.0975 7.96446 68.2855 8.06395C68.5136 8.1776 68.7044 8.35667 68.8349 8.57941C70.6121 11.5284 72.3778 14.4334 74.1316 17.2945L79.4632 26.0095V8.72325C79.5163 8.48512 79.654 8.2757 79.8491 8.13587C80.0118 7.99318 80.2197 7.91646 80.4339 7.92007H86.4319C86.6981 7.9155 86.9579 8.00432 87.1681 8.17185C87.2669 8.25615 87.3447 8.36298 87.3955 8.48377C87.4462 8.60452 87.4685 8.73583 87.4605 8.86713V39.1122C87.472 39.2316 87.4542 39.352 87.4093 39.4627C87.3645 39.5736 87.2939 39.6714 87.2035 39.7476C87.0023 39.8928 86.7592 39.9646 86.5136 39.9511H79.7555C79.5738 39.9551 79.3977 39.886 79.2644 39.7595C79.1038 39.603 78.9586 39.4304 78.832 39.244L73.2898 29.8576C71.4658 26.7648 69.6144 23.636 67.7361 20.4713V39.0042C67.7547 39.2587 67.6798 39.5111 67.5254 39.7115C67.4211 39.8019 67.2997 39.8694 67.1692 39.9106C67.0387 39.9519 66.9014 39.9658 66.7654 39.9511H60.7908C60.661 39.9662 60.5293 39.9487 60.4076 39.9007C60.2854 39.8527 60.1763 39.7758 60.0894 39.6754C59.9379 39.4964 59.8585 39.2651 59.8673 39.0283V8.85515Z" fill="white"/>
<path d="M157.228 23.9585C157.231 25.4289 157.038 26.8929 156.655 28.3099C156.285 29.6466 155.738 30.9252 155.029 32.1101C153.623 34.4846 151.641 36.4461 149.277 37.8042C146.79 39.1996 143.998 39.9257 141.162 39.9142H130.792C130.555 39.9169 130.323 39.8594 130.114 39.7464C129.915 39.6264 129.821 39.3866 129.821 39.003V8.90184C129.818 8.75947 129.843 8.61793 129.896 8.48595C129.948 8.35401 130.027 8.23445 130.125 8.13464C130.217 8.03348 130.33 7.95505 130.455 7.90519C130.581 7.85536 130.716 7.83541 130.85 7.84692H141.221C142.662 7.84426 144.096 8.03368 145.489 8.41034C146.824 8.7724 148.109 9.30822 149.312 10.0047C150.49 10.6923 151.582 11.5257 152.562 12.4862C153.537 13.4457 154.382 14.5342 155.076 15.7228C155.78 16.931 156.327 18.2288 156.701 19.583C157.076 21.0089 157.253 22.4818 157.228 23.9585ZM137.971 15.627V32.23H139.736C140.055 32.23 140.372 32.23 140.683 32.23L141.607 32.158C142.627 32.0768 143.625 31.8089 144.554 31.3669C145.424 30.9356 146.217 30.3513 146.892 29.6406C147.579 28.9155 148.123 28.0605 148.494 27.1232C148.889 26.1219 149.087 25.0506 149.079 23.9704C149.089 22.8237 148.862 21.6877 148.412 20.6378C147.985 19.6461 147.37 18.7509 146.603 18.0042C145.837 17.2572 144.934 16.6734 143.945 16.2863C142.912 15.8647 141.808 15.653 140.695 15.6629L137.971 15.627Z" fill="white"/>
<path d="M162.723 8.90319C162.707 8.64137 162.79 8.38332 162.956 8.18394C163.045 8.08984 163.153 8.0165 163.273 7.96889C163.391 7.92133 163.52 7.90062 163.646 7.90824H184.517C184.648 7.89951 184.78 7.91958 184.902 7.96715C185.026 8.01467 185.137 8.08861 185.231 8.18394C185.409 8.39129 185.502 8.66255 185.488 8.93917V14.2737C185.486 14.5332 185.394 14.7836 185.231 14.981C185.141 15.0911 185.028 15.1779 184.9 15.2341C184.772 15.2904 184.633 15.3146 184.494 15.3046H170.861V20.6632H181.384C181.619 20.6519 181.854 20.7191 182.05 20.855C182.142 20.933 182.213 21.0328 182.258 21.1457C182.302 21.2585 182.32 21.381 182.308 21.5023V26.1175C182.307 26.3336 182.222 26.5405 182.074 26.693C181.992 26.7908 181.889 26.8678 181.774 26.9177C181.657 26.9676 181.533 26.9892 181.406 26.9807H170.885V32.5071H185.031C185.161 32.4888 185.293 32.5018 185.417 32.5449C185.541 32.5881 185.653 32.6601 185.745 32.7556C185.837 32.851 185.906 32.967 185.947 33.0945C185.987 33.222 185.998 33.3574 185.979 33.4901V38.9085C185.977 38.9832 185.961 39.0568 185.93 39.1247C185.9 39.1927 185.857 39.2538 185.803 39.3041C185.803 39.6996 185.464 39.9035 184.938 39.9035H163.646C163.4 39.9209 163.157 39.8392 162.968 39.6758C162.881 39.5852 162.813 39.4761 162.771 39.356C162.728 39.2359 162.712 39.1076 162.723 38.9804V8.90319Z" fill="white"/>
<path fill-rule="evenodd" clip-rule="evenodd" d="M119.58 10.8581L108.215 27.0954L103.728 23.9523C102.99 23.4349 102.095 23.8677 102.259 24.6636L104.654 36.3041C104.77 36.8699 105.386 37.3014 105.957 37.2173L117.71 35.487C118.514 35.3687 118.615 34.3801 117.876 33.8626L113.389 30.7196L123.695 15.9947C126.587 21.5189 126.371 28.4254 122.55 33.8851C117.093 41.6805 106.352 43.5747 98.5584 38.1154C90.7646 32.6562 88.87 21.911 94.3265 14.1154C99.783 6.3198 110.524 4.42586 118.318 9.88509C118.757 10.1931 119.178 10.5179 119.58 10.8581Z" fill="white"/>
<path fill-rule="evenodd" clip-rule="evenodd" d="M113.312 11.6786C113.196 11.1128 112.58 10.6813 112.008 10.7654L100.255 12.4957C99.4518 12.614 99.351 13.6026 100.09 14.1201L104.577 17.2631L93.7084 32.7906C94.789 34.5607 96.2227 36.2071 98.032 37.6294L109.75 20.8873L114.237 24.0303C114.976 24.5478 115.871 24.115 115.707 23.3191L113.312 11.6786Z" fill="#5493E3"/>
</g>
<defs>
<clipPath id="clip0_2162_4930">
<rect width="185.217" height="48" fill="white" transform="translate(0.771729)"/>
</clipPath>
</defs>
</svg>
