<svg width="186" height="48" viewBox="0 0 186 48" fill="none" xmlns="http://www.w3.org/2000/svg">
<g style="mix-blend-mode:luminosity" clip-path="url(#clip0_2162_4894)">
<path d="M0.560059 9.6C0.560059 4.29806 4.86929 0 10.185 0H176.215C181.531 0 185.84 4.29806 185.84 9.6V38.4C185.84 43.7019 181.531 48 176.215 48H10.185C4.8693 48 0.560059 43.7019 0.560059 38.4V9.6Z" fill="#2A609F"/>
<path fill-rule="evenodd" clip-rule="evenodd" d="M36.7906 37.7799L32.6638 31.1026C32.5207 30.8702 32.341 30.6746 32.1399 30.5181C31.5761 30.0747 30.8357 29.9377 30.1556 30.1599L29.2354 28.6704L28.9342 28.1832L28.5543 27.57L28.1162 26.8605C28.4572 26.5668 28.7789 26.2577 29.0822 25.9322C32.9242 21.8119 33.688 15.3476 30.5753 10.3123C30.135 9.59985 29.6367 8.94977 29.0914 8.36223C28.1754 7.37441 27.1266 6.56879 25.994 5.95153C24.6418 5.21551 23.1713 4.75079 21.6629 4.57781C21.2022 4.52555 20.7396 4.49999 20.276 4.50101C18.0405 4.50922 15.7805 5.15718 13.7594 6.50533C10.137 8.92211 8.16195 13.0004 8.16504 17.1646C8.16605 19.5006 8.79103 21.8631 10.0962 23.9739C12.6769 28.1524 17.2306 30.2182 21.6793 29.7083C22.92 29.5672 24.1518 29.2251 25.3322 28.6724L25.8102 29.4462L27.391 32.0034C26.7437 32.7497 26.6252 33.8808 27.1735 34.7662L31.9233 42.4508C32.3442 43.1315 33.0538 43.5021 33.778 43.501C34.1854 43.501 34.596 43.3843 34.9645 43.1397L35.1177 43.0352L36.7508 41.945C37.7742 41.2643 38.0703 39.8486 37.4136 38.7871L36.7906 37.7799ZM11.5719 22.9902C8.56126 18.1206 9.78268 11.689 14.2598 8.35503C14.4049 8.24759 14.555 8.14009 14.7072 8.03874C16.8538 6.60662 19.315 6.09787 21.6608 6.41214C21.7027 6.41762 21.7442 6.42417 21.7857 6.43074C21.8142 6.43523 21.8427 6.43974 21.8713 6.44389C24.4989 6.85231 26.9631 8.29669 28.6553 10.6398C28.8014 10.8415 28.9433 11.0472 29.0771 11.2622C29.0809 11.2681 29.0849 11.274 29.0889 11.2799C29.0926 11.2853 29.0962 11.2907 29.0997 11.296C29.4867 11.9225 29.8022 12.5745 30.0524 13.2409C30.6366 14.804 30.8449 16.4543 30.7111 18.0654C30.4424 21.294 28.7912 24.3618 25.9644 26.2494C24.6234 27.142 23.161 27.6754 21.6802 27.874C21.571 27.8893 21.4616 27.9006 21.3513 27.9119C18.8453 28.1647 16.3106 27.4646 14.2496 25.9249C13.2161 25.152 12.3011 24.1715 11.5719 22.9902ZM23.4878 8.7666C24.5233 9.41325 25.5595 10.0604 26.5913 10.7145C26.7466 10.8138 26.7873 10.9654 26.6885 11.1219C25.5956 12.8529 24.46 14.5992 23.3171 16.2964C23.2397 16.4122 23.1425 16.5073 22.9884 16.4777C22.8515 16.452 22.778 16.362 22.7432 16.1941C22.6968 15.9724 22.6434 15.7416 22.5893 15.5077C22.4757 15.0168 22.3589 14.5117 22.296 14.0466C22.2786 13.9268 22.2102 13.8776 22.104 13.8848C18.0507 14.113 13.3621 16.4194 13.0394 21.1321C13.0322 21.2458 12.9843 21.3389 12.9148 21.4055C12.8249 21.4925 12.6973 21.5304 12.5686 21.4885C12.3909 21.4301 12.3439 21.2602 12.303 21.1025C10.7364 15.0272 15.4128 9.89352 21.1929 9.5701C21.3237 9.56295 21.3411 9.5005 21.3187 9.39199C21.2682 9.15016 21.2154 8.90877 21.1626 8.66751C21.1011 8.38604 21.0394 8.10432 20.9816 7.82272C20.9521 7.68144 20.9703 7.5361 21.0949 7.45524C21.2074 7.38255 21.3258 7.41329 21.4431 7.48695C22.1238 7.91484 22.8059 8.34079 23.4878 8.7666ZM17.093 25.7939C16.0359 25.1338 14.9791 24.4738 13.9258 23.806C13.7706 23.7077 13.7298 23.5561 13.8288 23.3985C14.9215 21.6676 16.0571 19.9212 17.201 18.2251C17.2786 18.1084 17.3746 18.0131 17.5288 18.0428C17.6657 18.0684 17.7381 18.1585 17.7739 18.3264C17.8207 18.5496 17.8745 18.7822 17.929 19.0178C18.0422 19.5071 18.1589 20.0104 18.2222 20.474C18.2386 20.5947 18.3059 20.6429 18.4132 20.6368C22.4665 20.4074 27.154 18.1011 27.4777 13.3883C27.485 13.2747 27.5329 13.1815 27.6024 13.115C27.6923 13.028 27.8189 12.9901 27.9485 13.0331C28.1262 13.0904 28.1732 13.2603 28.2141 13.418C29.7807 19.4934 25.1045 24.6269 19.3252 24.9504C19.1934 24.9576 19.1761 25.021 19.1984 25.1295C19.248 25.3664 19.2998 25.6031 19.3517 25.8398C19.4142 26.1254 19.4769 26.4119 19.5355 26.6978C19.5642 26.839 19.5467 26.9845 19.4222 27.0663C19.3109 27.1379 19.1903 27.1072 19.0739 27.0336C18.4147 26.6194 17.7548 26.2072 17.0949 25.7951L17.093 25.7939ZM119.239 14.5332H111.631V31.7744H119.239V28.555H114.876V24.6396H118.69V21.4202H114.876V17.7535H119.239V14.5332ZM45.3198 14.5332H37.7136V31.7744H45.3198V28.555H40.956V24.6396H44.7704V21.4202H40.956V17.7535H45.3198V14.5332ZM49.9929 14.5332H46.2021L49.3966 22.7826L45.9632 31.7744H49.7306L51.1858 26.7216H51.2808L52.735 31.7744H56.5505L53.022 22.7826L56.3115 14.5332H52.496L51.3523 18.7935H51.2094L49.9929 14.5332ZM58.7563 15.6233C58.0487 16.4494 57.6953 17.5478 57.6953 18.9184V27.5632C57.6953 29.0178 58.0364 30.1069 58.7196 30.8337C59.4038 31.5605 60.4926 31.9239 61.9877 31.9239C63.3377 31.9239 64.3723 31.5072 65.0861 30.6729C65.8019 29.8387 66.1675 28.7362 66.1839 27.3655L62.9792 26.9192C62.9639 27.5139 62.8566 27.9603 62.6586 28.2571C62.4614 28.555 62.204 28.7034 61.8875 28.7034C61.476 28.7034 61.2146 28.5959 61.1042 28.3809C60.9929 28.166 60.9377 27.9439 60.9377 27.7126V18.9184C60.9377 18.8027 60.9532 18.6666 60.9846 18.5089C61.0164 18.3523 61.0716 18.208 61.1501 18.0759C61.2288 17.9438 61.3351 17.8323 61.4688 17.7412C61.6015 17.6511 61.7783 17.6051 61.9999 17.6051C62.3297 17.6051 62.5931 17.7749 62.7893 18.1128C62.9853 18.4516 63.0925 18.8775 63.108 19.3882L66.2319 18.8191C66.2472 18.7363 66.2554 18.6584 66.2554 18.5836V18.3481C66.2554 17.1762 65.9092 16.2221 65.2178 15.4872C64.5265 14.7521 63.4572 14.3847 62.0111 14.3847C60.5477 14.3847 59.4631 14.7972 58.7563 15.6233ZM71.2626 14.5332H68.0201V31.7744H71.2626V24.6396H73.3368V31.7744H76.5802V14.5332H73.3368V21.37H71.2626V14.5332ZM85.0699 14.5332H81.1115L77.9629 31.7744H81.3964L81.8968 28.4066H84.3294L84.8298 31.7744H88.2409L85.0699 14.5332ZM83.1846 18.9921L83.5431 22.4859L83.8525 25.2343H82.3503L82.6853 22.4859L83.0417 18.9921H83.1846ZM92.4362 14.5332H89.5991V31.7744H92.8425V23.4767H92.9621L94.1008 26.7462L96.0492 31.7744H98.8036V14.5332H95.6315V22.6833H95.5131L94.3927 19.5376L92.4362 14.5332ZM102.273 15.6233C101.534 16.4494 101.163 17.5478 101.163 18.9184V27.5632C101.163 29.0178 101.506 30.1069 102.189 30.8337C102.872 31.5605 103.961 31.9239 105.456 31.9239C106.792 31.9239 107.824 31.5563 108.555 30.8213C109.287 30.0864 109.653 29.0095 109.653 27.5886V22.1634H105.313V25.1114H106.411V27.7617C106.411 28.0432 106.309 28.2695 106.108 28.4434C105.904 28.6164 105.649 28.7034 105.339 28.7034C104.934 28.7034 104.679 28.5959 104.569 28.3809C104.461 28.166 104.407 27.9439 104.407 27.7126V18.9184C104.407 18.8027 104.421 18.6666 104.453 18.5089C104.484 18.3523 104.54 18.208 104.617 18.0759C104.694 17.9438 104.801 17.8323 104.932 17.7412C105.064 17.6511 105.238 17.6051 105.456 17.6051C105.783 17.6051 106.043 17.7749 106.239 18.1128C106.432 18.4516 106.537 18.8775 106.553 19.3882L109.701 18.8191C109.748 18.1917 109.696 17.6051 109.547 17.0605C109.393 16.5148 109.14 16.044 108.783 15.6479C108.425 15.2517 107.973 14.9416 107.423 14.7184C106.875 14.4962 106.227 14.3847 105.478 14.3847C104.082 14.3847 103.012 14.7972 102.273 15.6233ZM124.381 8.73249H173.284C176.092 8.73249 178.369 11.0972 178.369 14.0156V32.2908C178.369 35.2092 176.092 37.5748 173.284 37.5748H124.381V8.73249Z" fill="white"/>
<path d="M132.398 19.8837C132.429 20.065 132.506 20.2381 132.634 20.4039C132.761 20.5686 132.948 20.7294 133.192 20.887C133.437 21.0436 133.782 21.2126 134.225 21.3947C134.985 21.708 135.587 22.0386 136.029 22.3845C136.472 22.7326 136.808 23.1124 137.037 23.525C137.267 23.9374 137.418 24.4042 137.489 24.9243C137.561 25.4443 137.596 26.0348 137.596 26.6963C137.596 27.4886 137.53 28.2071 137.393 28.8509C137.257 29.4949 137.026 30.0436 136.701 30.4981C136.376 30.9535 135.934 31.3035 135.379 31.5514C134.823 31.7991 134.123 31.923 133.279 31.923C132.517 31.923 131.861 31.8063 131.313 31.5729C130.764 31.3394 130.317 31.0201 129.978 30.6116C129.636 30.2053 129.385 29.7303 129.226 29.1908C129.068 28.6503 128.987 28.075 128.987 27.464L132.255 26.819C132.286 27.4475 132.376 27.9175 132.526 28.2317C132.674 28.546 132.955 28.7015 133.362 28.7015C133.599 28.7015 133.783 28.6452 133.918 28.5296C134.05 28.4139 134.153 28.2654 134.224 28.0842C134.294 27.9031 134.342 27.6891 134.365 27.4414C134.388 27.1948 134.4 26.946 134.4 26.6992C134.4 26.3534 134.375 26.0646 134.328 25.8333C134.28 25.6029 134.198 25.4055 134.079 25.2406C133.961 25.0757 133.797 24.9314 133.589 24.8076C133.382 24.6837 133.126 24.5559 132.827 24.4246C132.016 24.0778 131.365 23.7184 130.87 23.3478C130.379 22.9773 130.002 22.5822 129.74 22.1614C129.476 21.7407 129.305 21.2955 129.226 20.8256C129.147 20.3567 129.107 19.8407 129.107 19.2798C129.107 18.5715 129.186 17.9164 129.344 17.3145C129.504 16.7126 129.755 16.1977 130.097 15.7688C130.439 15.3399 130.883 15.0031 131.432 14.7553C131.98 14.5076 132.645 14.3838 133.422 14.3838C134.25 14.3838 134.933 14.5199 135.472 14.7923C136.015 15.0644 136.439 15.4125 136.749 15.8332C137.06 16.254 137.277 16.7207 137.405 17.2326C137.534 17.7444 137.596 18.2398 137.596 18.7189L134.4 19.4376C134.4 19.1888 134.388 18.9585 134.365 18.7434C134.342 18.5296 134.29 18.3351 134.211 18.1621C134.133 17.9881 134.027 17.8519 133.894 17.7537C133.761 17.6533 133.575 17.6042 133.34 17.6042C133.12 17.6042 132.946 17.6584 132.823 17.7649C132.696 17.8723 132.597 18.0043 132.526 18.1621C132.455 18.3187 132.408 18.4957 132.385 18.6934C132.361 18.8919 132.35 19.0823 132.35 19.2636C132.35 19.4948 132.365 19.7016 132.398 19.8837ZM172.338 27.5631C172.338 29.0495 171.981 30.1479 171.264 30.8584C170.55 31.5678 169.493 31.923 168.094 31.923C165.279 31.923 163.872 30.4704 163.872 27.5631V18.7189C163.872 17.2326 164.245 16.1383 164.994 15.436C165.741 14.7338 166.774 14.3838 168.094 14.3838C169.538 14.3838 170.609 14.7338 171.301 15.436C171.992 16.1383 172.338 17.2326 172.338 18.7189V27.5631ZM168.094 17.5294C167.823 17.5294 167.591 17.6124 167.401 17.7782C167.211 17.9429 167.116 18.2143 167.116 18.5951V27.7117C167.116 28.1079 167.211 28.3842 167.401 28.5419C167.591 28.6984 167.823 28.7773 168.094 28.7773C168.362 28.7773 168.59 28.6984 168.771 28.5419C168.955 28.3842 169.047 28.1079 169.047 27.7117V18.5951C169.047 18.2143 168.955 17.9429 168.771 17.7782C168.59 17.6124 168.362 17.5294 168.094 17.5294ZM161.728 31.7735H158.484V23.7225H158.389L157.606 26.3983L156.965 28.4057H154.803L154.118 26.1998L153.356 23.6488H153.237V31.7735H149.995V14.5323H153.023L154.669 19.1396L155.79 22.5587H155.933L157.077 19.0659L158.699 14.5323H161.728V31.7735ZM147.873 27.5631C147.873 29.0495 147.516 30.1479 146.799 30.8584C146.085 31.5678 145.029 31.923 143.629 31.923C140.813 31.923 139.408 30.4704 139.408 27.5631V14.5577H142.651V27.6379C142.651 28.0342 142.748 28.3105 142.938 28.4671C143.128 28.6239 143.358 28.7015 143.629 28.7015C143.899 28.7015 144.126 28.6239 144.309 28.4671C144.491 28.3105 144.581 28.0342 144.581 27.6379V14.5577H147.873V27.5631Z" fill="#2A609F"/>
</g>
<defs>
<clipPath id="clip0_2162_4894">
<rect width="185.28" height="48" fill="white" transform="translate(0.560059)"/>
</clipPath>
</defs>
</svg>
