<svg width="24" height="24" fill="none" xmlns="http://www.w3.org/2000/svg"><path d="M24 19.464C24 22.38 22.38 24 19.464 24H4.536C1.62 24 0 22.38 0 19.464V4.536C0 1.62 1.62 0 4.536 0H19.47C22.38 0 24 1.62 24 4.536v14.928z" fill="#FFE600"/><path d="M15.432 10.83V8.538l.828-.828v1.986l.72.72 2.898-2.898.714.714c-.006-.54-.114-2.106-1.44-3.408-1.428-1.38-2.976-.756-3.504-.228l-2.892 2.892.738.738L12 9.732l-1.494-1.494.738-.738-2.892-2.892c-.528-.528-2.076-1.152-3.504.228-1.326 1.302-1.434 2.868-1.44 3.408l.714-.714 2.898 2.898.72-.72V7.722l.828.828v2.292L9.732 12l-5.736 5.736 2.268 2.262L12 14.268l5.736 5.736 2.268-2.262L14.268 12l1.164-1.17z" fill="#2B2D34"/></svg>