<svg width="24" height="24" fill="none" xmlns="http://www.w3.org/2000/svg"><path d="M21.211 4.662a12.067 12.067 0 011.419 2.386l-10.786 8.058-4.508-2.864V8.797l4.508 2.864 9.367-6.999z" fill="#21A038"/><path d="M2.736 12c0-.155.003-.309.01-.461l-2.731-.136a12.107 12.107 0 00.885 5.19 11.978 11.978 0 002.568 3.89l1.938-1.962a9.205 9.205 0 01-1.977-2.99A9.302 9.302 0 012.736 12z" fill="url(#paint0_linear_2_2433)"/><path d="M11.841 2.772c.153 0 .304.006.455.013l.137-2.77a12.897 12.897 0 00-.592-.013 11.673 11.673 0 00-4.532.91 11.8 11.8 0 00-3.84 2.604L5.405 5.48a9.067 9.067 0 012.951-2.005 8.969 8.969 0 013.484-.703z" fill="url(#paint1_linear_2_2433)"/><path d="M11.841 21.228c-.152 0-.304 0-.455-.012l-.137 2.768a11.665 11.665 0 005.123-.896 11.792 11.792 0 003.838-2.604l-1.934-1.963a9.07 9.07 0 01-2.951 2.004 8.97 8.97 0 01-3.484.703z" fill="url(#paint2_linear_2_2433)"/><path d="M16.974 4.382l2.303-1.72A11.69 11.69 0 0011.837 0v2.771a8.975 8.975 0 015.137 1.61z" fill="url(#paint3_linear_2_2433)"/><path d="M23.682 12c.001-.72-.06-1.44-.186-2.15l-2.549 1.903V12a9.31 9.31 0 01-.782 3.743 9.198 9.198 0 01-2.217 3.097l1.838 2.059a11.963 11.963 0 002.881-4.03A12.104 12.104 0 0023.682 12z" fill="#21A038"/><path d="M11.841 21.228c-1.272 0-2.53-.27-3.693-.793a9.094 9.094 0 01-3.056-2.247L3.06 20.05a11.817 11.817 0 003.976 2.92A11.669 11.669 0 0011.84 24v-2.772z" fill="url(#paint4_linear_2_2433)"/><path d="M5.735 5.16L3.898 3.101a11.963 11.963 0 00-2.882 4.03A12.105 12.105 0 000 11.998h2.736a9.312 9.312 0 01.782-3.742A9.201 9.201 0 015.735 5.16z" fill="url(#paint5_linear_2_2433)"/><defs><linearGradient id="paint0_linear_2_2433" x1="4.022" y1="20.138" x2=".961" y2="11.408" gradientUnits="userSpaceOnUse"><stop offset=".14" stop-color="#F1E813"/><stop offset=".3" stop-color="#E6E418"/><stop offset=".58" stop-color="#C9DA26"/><stop offset=".89" stop-color="#A2CC39"/></linearGradient><linearGradient id="paint1_linear_2_2433" x1="4.249" y1="4.006" x2="11.973" y2="1.101" gradientUnits="userSpaceOnUse"><stop offset=".06" stop-color="#0FA7DF"/><stop offset=".54" stop-color="#0098F8"/><stop offset=".92" stop-color="#0290EA"/></linearGradient><linearGradient id="paint2_linear_2_2433" x1="11.069" y1="22.327" x2="19.785" y2="20.384" gradientUnits="userSpaceOnUse"><stop offset=".12" stop-color="#A2CC39"/><stop offset=".28" stop-color="#86C239"/><stop offset=".87" stop-color="#219F38"/></linearGradient><linearGradient id="paint3_linear_2_2433" x1="11.269" y1=".928" x2="18.728" y2="3.2" gradientUnits="userSpaceOnUse"><stop offset=".06" stop-color="#0290EA"/><stop offset=".79" stop-color="#0C89CA"/></linearGradient><linearGradient id="paint4_linear_2_2433" x1="3.747" y1="19.713" x2="11.874" y2="22.71" gradientUnits="userSpaceOnUse"><stop offset=".13" stop-color="#F1E813"/><stop offset=".3" stop-color="#EAE616"/><stop offset=".53" stop-color="#D8DF1F"/><stop offset=".8" stop-color="#BAD52D"/><stop offset=".98" stop-color="#A2CC39"/></linearGradient><linearGradient id="paint5_linear_2_2433" x1="1.019" y1="12.335" x2="4.347" y2="3.792" gradientUnits="userSpaceOnUse"><stop offset=".07" stop-color="#A2CC39"/><stop offset=".26" stop-color="#81C45E"/><stop offset=".92" stop-color="#0FA7DF"/></linearGradient></defs></svg>