<svg width="24" height="24" fill="none" xmlns="http://www.w3.org/2000/svg"><g clip-path="url(#clip0_3_170881)"><rect width="24" height="24" rx="12" fill="#F06543"/><path fill-rule="evenodd" clip-rule="evenodd" d="M12.75 6a.75.75 0 10-1.5 0v1.272c-.578.05-1.18.187-1.68.5a2.231 2.231 0 00-1.066 1.684c-.07.598-.006 1.134.21 1.6.218.47.56.809.943 1.056.717.461 1.669.648 2.424.796l.018.004.067.013c.38.074.722.142 1.034.226.33.09.575.185.747.293.16.102.232.197.268.292.039.103.07.296-.017.648-.057.232-.214.426-.547.583-.35.166-.841.262-1.416.28-1.168.037-2.388-.25-2.885-.511a.75.75 0 00-.7 1.326c.59.311 1.575.564 2.6.653V18a.75.75 0 001.5 0v-1.284c.536-.052 1.073-.17 1.542-.393.624-.295 1.171-.798 1.363-1.582.135-.55.14-1.067-.036-1.532-.177-.473-.506-.803-.873-1.034-.356-.224-.765-.367-1.155-.472a16.528 16.528 0 00-1.122-.247l-.08-.016c-.831-.163-1.484-.31-1.92-.59a1.008 1.008 0 01-.394-.424c-.075-.162-.127-.407-.081-.793a.736.736 0 01.368-.588c.241-.15.613-.253 1.104-.285.98-.063 2.154.172 2.89.42a.75.75 0 00.478-1.422 10.444 10.444 0 00-2.084-.453V6z" fill="#fff"/></g><defs><clipPath id="clip0_3_170881"><path fill="#fff" d="M0 0h24v24H0z"/></clipPath></defs></svg>