<svg width="24" height="24" viewBox="0 0 24 24" fill="none" xmlns="http://www.w3.org/2000/svg">
<g clip-path="url(#clip0_13_117300)">
<path d="M12 24C18.6274 24 24 18.6274 24 12C24 5.37258 18.6274 0 12 0C5.37258 0 0 5.37258 0 12C0 18.6274 5.37258 24 12 24Z" fill="#26A17B"/>
<path fill-rule="evenodd" clip-rule="evenodd" d="M13.4411 13.0374V13.0359C13.3586 13.0419 12.9334 13.0674 11.9846 13.0674C11.2271 13.0674 10.6939 13.0449 10.5064 13.0359V13.0382C7.59036 12.9099 5.41386 12.4022 5.41386 11.7947C5.41386 11.1879 7.59036 10.6802 10.5064 10.5497V12.5327C10.6969 12.5462 11.2429 12.5784 11.9974 12.5784C12.9026 12.5784 13.3564 12.5409 13.4411 12.5334V10.5512C16.3511 10.6809 18.5224 11.1887 18.5224 11.7947C18.5224 12.4022 16.3511 12.9084 13.4411 13.0374ZM13.4411 10.3449V8.57044H17.5016V5.86444H6.44586V8.57044H10.5064V10.3442C7.20636 10.4957 4.72461 11.1497 4.72461 11.9327C4.72461 12.7157 7.20636 13.3689 10.5064 13.5212V19.2077H13.4411V13.5197C16.7359 13.3682 19.2116 12.7149 19.2116 11.9327C19.2116 11.1504 16.7359 10.4972 13.4411 10.3449Z" fill="white"/>
</g>
<defs>
<clipPath id="clip0_13_117300">
<rect width="24" height="24" rx="12" fill="white"/>
</clipPath>
</defs>
</svg>
